<svg xmlns="http://www.w3.org/2000/svg" viewBox="0 0 600 1231">
<defs>
<style>
.prov{stroke:#fff;stroke-width:0.8;cursor:pointer;transition:opacity .15s,stroke-width .15s}
.prov:hover{opacity:.7;stroke-width:1.5;stroke:#334155}
</style>
</defs>
<path class="prov" d="M65,69L67,69L69,70L71,73L74,74L74,76L76,78L78,78L81,76L83,76L87,77L90,76L92,75L92,78L93,79L95,81L97,82L98,85L98,87L99,88L99,90L100,91L101,93L101,96L101,98L101,100L100,102L101,103L101,105L101,108L101,110L101,113L100,115L101,117L102,118L104,122L105,124L104,127L102,128L100,129L98,130L96,130L94,129L93,129L91,131L90,131L88,130L86,130L84,130L82,129L82,128L81,126L80,125L78,124L78,122L77,121L75,120L74,119L72,119L71,120L70,122L69,124L68,125L69,128L67,132L68,135L68,137L67,141L65,146L66,150L68,150L68,152L67,154L67,156L67,158L67,160L66,161L67,163L68,165L68,167L67,169L68,171L70,174L72,175L73,176L73,177L72,177L71,179L70,181L67,184L66,186L67,187L68,189L67,191L66,194L67,195L67,197L67,199L67,201L68,204L68,205L67,207L66,208L66,210L65,212L66,215L68,217L70,219L72,221L74,224L75,225L76,226L76,228L75,229L75,230L74,232L76,234L76,236L80,238L77,239L75,240L74,241L71,242L68,242L67,243L59,247L58,248L54,248L53,249L44,239L43,237L42,235L42,233L40,232L39,230L38,228L39,227L38,223L40,218L42,216L42,215L42,213L41,210L39,208L39,207L39,205L38,203L38,202L34,195L33,194L35,192L35,190L34,188L30,186L28,190L27,192L26,191L24,190L23,188L22,186L22,184L22,182L21,181L20,177L18,174L17,171L15,169L17,169L19,172L20,174L23,173L26,173L29,172L33,168L38,168L42,167L43,163L43,159L42,156L41,153L41,151L40,147L41,144L40,142L38,141L36,139L37,137L38,136L39,135L40,131L41,129L45,125L46,124L47,117L46,114L44,111L44,110L46,109L46,108L46,106L45,105L44,103L44,100L46,96L48,94L49,92L49,90L48,89L49,86L52,86L56,83L58,81L59,81L60,79L60,75L61,68L63,67L64,68L65,69L65,69Z" fill="#4ade80" data-province="แม่ฮ่องสอน" data-region="ภาคเหนือ"/>
<path class="prov" d="M147,784L150,783L151,784L153,784L156,784L157,783L159,783L160,781L163,781L162,783L162,785L163,789L164,790L161,790L159,791L158,795L158,797L154,804L154,806L152,807L150,809L149,811L149,812L148,816L147,817L146,818L145,819L146,821L146,823L145,825L147,827L148,829L148,832L146,833L144,834L144,832L142,831L140,832L139,833L139,837L142,841L144,843L146,843L145,844L142,845L141,848L139,851L139,853L139,856L139,857L141,860L139,861L140,866L140,872L140,874L139,876L138,877L138,879L136,879L134,880L133,881L131,882L131,883L129,884L126,884L124,884L122,884L121,884L118,885L117,886L115,887L113,888L113,891L111,894L110,892L107,890L105,890L105,888L105,886L104,885L104,883L103,881L104,879L105,878L106,876L108,875L109,873L110,871L110,870L112,868L112,867L114,866L115,866L117,864L118,862L119,861L122,860L122,858L123,857L124,853L122,848L121,846L121,845L121,843L122,842L122,839L123,838L124,836L125,834L125,832L124,830L123,830L122,828L122,825L122,823L123,821L125,820L126,818L125,817L126,815L126,813L126,812L126,810L124,809L124,807L123,806L122,805L123,802L122,800L121,799L120,798L121,796L122,796L126,795L127,794L128,792L127,789L127,787L127,786L128,784L130,784L131,785L133,784L133,782L135,780L137,778L138,780L140,781L144,783L146,784L147,784Z" fill="#2dd4bf" data-province="ชุมพร" data-region="ภาคใต้"/>
<path class="prov" d="M220,1029L219,1029L217,1030L214,1031L211,1032L208,1034L207,1035L206,1040L201,1039L199,1037L198,1036L198,1034L197,1033L194,1032L185,1033L183,1034L180,1035L178,1033L179,1031L179,1028L180,1027L179,1025L177,1025L174,1025L173,1025L171,1025L170,1026L169,1028L167,1029L166,1031L165,1032L165,1034L163,1034L161,1033L160,1033L157,1033L155,1032L154,1031L154,1030L151,1028L151,1027L152,1025L151,1022L150,1020L148,1017L148,1015L149,1014L148,1011L149,1009L150,1008L150,1002L150,1000L148,998L146,996L145,994L145,992L146,989L147,987L148,985L148,984L148,981L150,981L152,981L154,979L156,979L158,976L159,975L159,973L159,972L162,970L162,968L164,965L164,963L164,961L164,958L164,957L165,955L167,954L168,950L170,949L171,950L172,950L174,949L175,949L176,947L176,946L177,945L178,944L179,943L179,941L180,939L181,939L182,938L182,936L182,934L181,933L179,932L179,929L179,927L180,926L180,922L180,920L181,917L183,917L187,919L187,921L189,924L189,930L189,932L191,934L191,936L191,940L192,942L192,944L191,946L192,953L193,956L194,972L195,975L196,977L200,980L201,982L202,986L203,988L204,989L206,991L208,993L210,992L209,989L209,986L208,983L206,982L207,981L209,983L211,986L212,987L216,998L218,1014L220,1029L220,1029Z" fill="#2dd4bf" data-province="นครศรีธรรมราช" data-region="ภาคใต้"/>
<path class="prov" d="M88,1032L90,1033L87,1035L87,1039L84,1037L83,1039L82,1041L81,1043L79,1041L79,1036L78,1034L79,1032L79,1031L77,1030L78,1028L78,1026L79,1024L79,1023L79,1021L78,1018L79,1016L79,1013L79,1012L79,1008L80,1009L82,1010L83,1015L85,1015L86,1016L87,1017L89,1016L90,1017L89,1020L88,1022L88,1024L87,1025L87,1028L87,1029L88,1031L88,1032Z" fill="#2dd4bf" data-province="ภูเก็ต" data-region="ภาคใต้"/>
<path class="prov" d="M96,1015L100,1017L101,1019L101,1021L102,1030L101,1032L99,1030L99,1029L99,1027L98,1025L100,1023L99,1021L97,1020L96,1018L96,1015L96,1015ZM102,1016L100,1016L99,1014L101,1013L101,1011L102,1010L103,1008L103,1010L102,1016L102,1016ZM80,948L78,953L77,951L77,949L77,948L77,946L77,943L79,942L80,943L81,945L81,946L80,948L80,948ZM80,939L77,940L76,938L77,931L78,930L80,931L81,933L82,935L82,937L80,938L80,939ZM95,926L94,928L94,930L93,931L93,933L94,936L93,937L94,943L94,945L93,945L91,946L91,947L91,950L91,951L93,952L97,955L97,956L98,958L100,959L101,960L101,963L101,966L100,967L99,969L97,970L99,973L102,973L104,972L106,972L108,973L108,975L108,977L107,978L105,979L105,981L105,985L106,987L106,989L105,990L105,992L105,994L104,993L102,992L101,993L99,994L97,996L95,997L93,996L93,998L92,997L90,998L89,999L91,1000L91,1003L91,1006L90,1010L89,1012L88,1011L86,1013L85,1012L84,1009L82,1008L81,1007L79,1006L79,1004L79,1001L78,999L76,991L73,981L73,979L74,977L74,979L77,982L77,981L75,979L75,977L75,975L76,972L76,969L75,966L75,964L77,963L77,957L78,955L79,952L80,949L81,947L82,945L84,945L84,943L86,940L84,941L82,941L82,939L85,938L85,934L83,931L82,929L82,927L82,926L83,926L85,924L84,922L84,921L85,919L86,917L86,915L88,914L90,915L92,917L95,918L96,919L96,923L95,925L95,926L95,926ZM51,911L49,910L49,908L51,909L51,911L51,911ZM53,907L51,907L49,905L51,904L52,905L53,907L53,907Z" fill="#2dd4bf" data-province="พังงา" data-region="ภาคใต้"/>
<path class="prov" d="M88,883L87,886L86,884L87,882L88,880L88,882L88,883ZM122,806L123,807L124,809L126,810L126,812L126,813L126,815L125,817L126,818L125,820L123,821L122,822L122,824L122,827L122,829L124,830L125,832L125,834L124,835L123,837L122,839L123,840L122,842L121,845L121,846L122,848L124,852L123,856L123,857L122,859L121,861L119,862L118,863L116,866L114,866L113,867L112,868L110,869L110,871L109,873L108,874L107,876L105,877L104,878L103,880L104,883L104,885L105,886L105,888L105,890L107,890L110,892L111,894L111,896L112,897L113,898L112,900L109,904L107,905L106,906L106,908L105,908L105,910L105,912L106,913L104,914L102,915L100,914L97,914L95,916L95,918L92,917L90,915L89,914L87,915L87,912L87,911L89,908L90,901L91,898L93,900L95,898L96,896L94,896L93,895L91,894L93,891L95,890L93,887L95,886L93,885L95,885L97,886L98,884L98,883L97,882L95,882L94,880L96,879L98,878L99,876L100,874L98,877L96,876L95,875L95,874L96,872L98,872L100,870L99,869L100,866L102,866L102,864L101,864L101,862L104,856L105,855L107,849L109,845L109,843L109,841L109,840L110,838L111,835L111,833L112,828L113,824L114,821L114,820L113,814L111,812L112,808L112,806L115,801L117,800L119,800L120,798L121,799L122,800L123,802L122,804L122,806L122,806Z" fill="#2dd4bf" data-province="ระนอง" data-region="ภาคใต้"/>
<path class="prov" d="M177,901L175,901L176,899L177,901L177,901ZM203,896L202,898L202,901L202,903L201,905L199,906L199,908L197,908L194,909L193,907L193,904L192,903L193,901L192,898L193,896L194,896L196,896L200,897L202,895L203,896ZM175,893L175,893ZM138,879L138,881L139,884L140,887L140,889L141,891L143,894L143,897L146,905L150,911L149,911L146,913L144,916L144,920L146,924L149,925L152,925L154,927L156,927L159,927L161,927L163,925L164,922L165,920L169,921L171,920L174,918L176,917L178,917L180,917L180,919L180,921L180,924L179,927L179,929L178,930L180,932L181,933L182,935L182,937L182,938L181,939L179,940L179,942L179,943L178,945L176,945L176,947L175,949L174,949L172,950L171,950L170,949L168,950L167,954L165,955L164,956L164,958L164,960L164,962L164,964L162,967L162,969L160,971L159,973L159,975L158,976L156,978L155,979L152,981L151,982L149,980L148,984L148,985L147,987L146,988L145,991L145,993L146,996L144,997L143,998L141,998L138,997L134,995L132,996L131,997L128,998L127,998L124,998L122,998L121,996L121,994L121,992L121,990L121,988L122,987L122,985L121,984L120,982L121,980L122,979L123,978L121,975L120,974L118,972L115,972L113,970L111,969L110,972L109,973L106,972L105,972L103,973L101,973L97,971L98,970L100,968L101,967L101,964L101,961L101,959L99,959L97,956L97,955L94,953L92,952L91,950L91,948L91,947L93,945L94,945L94,943L93,938L94,937L93,933L93,931L94,930L94,929L94,927L95,925L96,924L96,920L95,918L95,916L97,915L100,913L101,915L104,914L105,914L106,912L105,912L105,910L106,909L107,907L106,906L108,905L111,900L112,899L112,898L112,896L111,894L112,892L113,888L115,887L117,886L118,885L121,884L122,884L123,884L126,884L128,883L130,884L131,882L133,881L134,880L135,879L137,879L138,879ZM197,878L199,878L202,880L202,883L203,889L201,887L197,885L196,883L195,881L196,879L197,878Z" fill="#2dd4bf" data-province="สุราษฎร์ธานี" data-region="ภาคใต้"/>
<path class="prov" d="M136,1066L135,1067L134,1066L132,1064L130,1059L130,1056L130,1053L133,1055L133,1058L134,1061L135,1064L136,1066L136,1066ZM136,1057L135,1056L133,1055L131,1051L133,1050L135,1051L137,1052L137,1054L137,1056L136,1057ZM122,998L124,998L127,998L128,998L130,998L131,996L133,995L137,996L140,998L142,998L144,997L146,996L147,998L149,999L150,1001L150,1008L149,1009L148,1011L148,1013L149,1014L148,1016L149,1019L150,1021L152,1024L151,1026L151,1027L152,1029L152,1031L151,1033L150,1034L149,1036L149,1037L150,1039L150,1041L152,1044L150,1049L146,1052L145,1050L143,1050L141,1048L140,1047L139,1046L138,1045L137,1043L137,1046L136,1048L135,1049L132,1048L131,1046L130,1041L129,1039L132,1036L133,1034L133,1031L131,1032L129,1029L127,1028L126,1026L126,1024L125,1023L123,1021L123,1020L121,1020L121,1022L118,1023L117,1023L116,1021L115,1020L114,1021L112,1022L112,1020L111,1018L111,1017L111,1013L111,1009L111,1006L109,1003L108,1006L108,1000L106,999L104,1001L102,1001L103,996L104,994L105,993L105,991L106,989L106,987L105,985L105,981L105,979L107,978L108,977L108,975L109,973L110,973L111,970L112,969L114,971L118,972L119,973L121,974L123,977L123,978L122,980L120,982L121,984L122,985L122,987L121,988L121,990L121,992L121,994L121,996L122,998L122,998Z" fill="#2dd4bf" data-province="กระบี่" data-region="ภาคใต้"/>
<path class="prov" d="M206,1040L208,1040L210,1042L208,1045L207,1048L208,1055L209,1059L209,1062L210,1064L212,1066L215,1073L216,1076L218,1077L219,1077L221,1077L223,1080L222,1082L220,1084L218,1086L217,1088L215,1089L213,1089L210,1090L209,1090L202,1094L201,1095L199,1097L195,1092L195,1091L194,1088L193,1085L193,1084L193,1081L192,1080L191,1078L190,1076L189,1074L187,1067L187,1065L185,1064L185,1062L185,1060L183,1057L183,1055L183,1054L184,1052L185,1051L183,1048L182,1045L182,1043L179,1036L182,1035L184,1033L194,1032L197,1033L198,1034L198,1036L199,1037L200,1038L204,1039L206,1040Z" fill="#2dd4bf" data-province="พัทลุง" data-region="ภาคใต้"/>
<path class="prov" d="M145,1139L143,1142L142,1143L140,1142L139,1141L141,1141L143,1139L145,1139L145,1139ZM174,1146L173,1145L172,1141L169,1139L170,1137L171,1135L171,1133L172,1132L173,1129L173,1128L175,1131L175,1135L176,1138L177,1141L176,1143L175,1143L174,1145L174,1146ZM185,1095L185,1096L186,1098L188,1099L189,1099L191,1096L191,1094L194,1097L196,1099L198,1100L200,1100L201,1101L202,1103L202,1105L203,1107L204,1108L205,1110L207,1111L209,1112L211,1114L212,1116L211,1117L211,1119L210,1121L211,1124L211,1126L211,1128L209,1129L208,1131L208,1132L208,1136L208,1139L208,1141L207,1142L207,1144L207,1147L206,1149L204,1147L204,1144L203,1142L202,1143L201,1145L199,1143L197,1140L197,1138L195,1138L195,1136L194,1133L193,1132L192,1130L189,1127L188,1124L187,1123L185,1124L184,1120L177,1117L175,1115L175,1112L176,1110L177,1109L176,1108L175,1106L175,1104L176,1100L177,1098L180,1095L181,1095L183,1094L185,1093L185,1095ZM149,1145L148,1144L147,1140L150,1140L151,1142L150,1144L149,1145ZM188,1128L186,1128L187,1126L188,1128L188,1128ZM171,1098L169,1098L167,1097L167,1095L168,1096L170,1097L171,1098ZM85,1057L84,1056L85,1057L85,1057ZM127,1037L128,1038L128,1040L124,1037L125,1036L127,1037L127,1037ZM35,972L35,974L34,972L35,970L35,972L35,972ZM79,929L78,927L81,922L81,924L80,926L79,929L79,929ZM91,873L92,875L92,876L91,879L90,878L89,876L90,874L90,873L91,873ZM186,852L187,854L187,856L186,857L184,856L185,854L185,852L186,852L186,852ZM369,714L368,715L366,715L367,713L369,714L369,714ZM252,642L252,643L251,645L249,643L251,642L252,642L252,642Z" fill="#2dd4bf" data-province="สตูล" data-region="ภาคใต้"/>
<path class="prov" d="M225,1088L226,1091L228,1092L230,1093L233,1094L235,1093L237,1091L237,1088L239,1089L249,1106L251,1108L253,1108L255,1108L256,1109L258,1111L262,1115L265,1117L267,1117L270,1116L269,1120L268,1121L268,1125L269,1128L270,1132L273,1134L273,1138L272,1139L271,1141L270,1143L268,1147L264,1148L262,1149L260,1151L260,1153L260,1155L260,1158L260,1160L258,1161L256,1162L253,1162L254,1160L253,1158L252,1156L252,1152L252,1151L250,1150L248,1150L247,1147L241,1150L239,1150L237,1148L232,1147L229,1144L226,1144L224,1144L221,1142L220,1141L219,1139L216,1130L214,1129L213,1130L211,1130L211,1126L211,1124L210,1122L211,1120L211,1119L212,1116L211,1114L210,1113L208,1112L206,1111L204,1109L203,1107L202,1105L202,1103L201,1102L200,1100L199,1097L201,1095L202,1094L208,1090L209,1090L213,1089L215,1088L216,1088L217,1087L220,1085L221,1083L223,1080L223,1082L223,1083L225,1084L226,1085L224,1086L224,1088L225,1088ZM222,1038L227,1066L231,1078L235,1085L236,1086L236,1088L235,1089L231,1085L230,1084L227,1084L226,1083L227,1081L226,1078L226,1075L225,1068L225,1062L224,1059L222,1058L219,1058L218,1061L217,1063L216,1062L215,1060L216,1058L218,1056L219,1055L219,1052L219,1048L218,1043L217,1041L214,1041L211,1042L210,1042L208,1041L206,1040L207,1035L208,1034L211,1032L213,1032L216,1030L219,1029L220,1029L222,1038L222,1038Z" fill="#2dd4bf" data-province="สงขลา" data-region="ภาคใต้"/>
<path class="prov" d="M159,1085L158,1086L156,1086L155,1088L154,1084L155,1083L156,1083L159,1085L159,1085ZM179,1025L180,1027L179,1028L179,1031L178,1033L179,1035L182,1043L182,1045L183,1048L184,1050L185,1051L183,1053L183,1055L183,1057L185,1060L185,1062L185,1064L187,1065L187,1067L189,1073L190,1075L191,1077L192,1080L193,1081L193,1083L193,1085L193,1087L195,1091L195,1092L199,1097L200,1100L198,1100L196,1099L195,1098L193,1094L191,1095L190,1098L189,1099L186,1098L185,1096L185,1095L183,1094L181,1095L179,1094L178,1094L177,1095L175,1095L174,1091L172,1093L171,1094L170,1093L167,1089L165,1085L166,1083L167,1082L168,1080L169,1077L170,1074L167,1079L166,1080L164,1080L164,1075L163,1074L162,1076L162,1081L161,1082L159,1081L157,1080L155,1080L153,1078L151,1074L152,1071L152,1067L151,1065L149,1064L149,1062L149,1060L149,1058L148,1055L147,1055L145,1054L146,1053L149,1049L151,1046L150,1041L150,1039L149,1038L148,1037L150,1034L151,1033L152,1031L152,1029L154,1030L154,1031L155,1032L157,1033L160,1033L161,1033L163,1034L165,1034L165,1032L166,1031L167,1030L169,1028L170,1027L170,1025L172,1025L174,1025L176,1025L178,1025L179,1025Z" fill="#2dd4bf" data-province="ตรัง" data-region="ภาคใต้"/>
<path class="prov" d="M289,1141L291,1140L295,1140L297,1140L298,1139L300,1138L302,1140L303,1141L305,1142L307,1141L308,1143L306,1144L305,1147L303,1149L302,1150L300,1150L296,1152L294,1165L293,1167L293,1168L292,1169L292,1171L293,1173L295,1175L296,1176L296,1179L297,1180L299,1181L299,1187L299,1189L300,1191L300,1193L293,1198L290,1200L287,1201L285,1202L283,1203L282,1207L282,1209L281,1210L280,1212L279,1213L276,1215L274,1216L272,1213L271,1211L270,1210L268,1208L266,1208L264,1205L263,1204L263,1202L267,1194L269,1193L271,1191L271,1189L272,1187L272,1182L272,1179L272,1177L270,1176L269,1175L269,1173L270,1172L272,1171L272,1169L272,1167L270,1166L267,1166L264,1164L261,1166L257,1166L255,1166L253,1165L253,1163L255,1162L257,1162L259,1161L260,1158L260,1155L260,1153L260,1152L261,1150L264,1148L267,1148L270,1143L271,1142L272,1140L273,1138L273,1134L274,1135L276,1137L277,1137L279,1138L281,1138L282,1137L284,1135L285,1132L286,1133L287,1135L286,1137L287,1139L288,1141L289,1141Z" fill="#2dd4bf" data-province="ยะลา" data-region="ภาคใต้"/>
<path class="prov" d="M197,20L198,20L200,22L201,23L204,25L204,28L204,30L205,31L207,32L208,31L208,27L211,26L212,23L213,21L215,19L218,19L221,19L222,21L226,31L228,33L228,35L230,37L232,38L234,39L235,42L234,46L233,51L231,57L230,59L229,62L228,63L227,64L226,66L225,68L223,70L223,72L224,73L221,77L219,78L217,78L216,80L214,81L213,80L210,82L208,85L208,87L208,88L208,90L207,91L207,93L203,95L203,97L201,97L199,97L198,97L195,100L193,101L191,100L191,99L192,95L191,93L179,95L178,96L175,97L175,96L173,94L173,93L172,91L170,91L169,93L169,95L168,97L167,99L168,101L168,103L168,106L168,108L167,112L166,114L166,116L166,119L167,120L167,122L166,123L165,125L163,126L162,127L159,131L156,132L155,129L154,127L151,123L150,118L150,114L151,112L152,110L150,105L151,103L151,100L150,98L150,95L150,94L149,92L150,90L150,88L149,87L149,84L147,84L146,81L146,80L148,78L149,77L150,76L151,75L153,73L153,70L154,69L155,67L156,66L157,64L155,63L155,61L155,59L156,57L157,55L158,53L161,53L162,53L164,54L165,55L165,57L167,56L169,53L169,50L166,49L165,48L163,47L163,45L165,44L166,42L167,41L165,40L164,39L164,37L164,35L162,31L161,26L160,25L158,22L157,21L159,21L163,23L168,25L170,25L172,26L174,26L177,25L181,24L183,23L185,19L187,16L189,16L192,15L194,16L194,18L196,20L197,20Z" fill="#4ade80" data-province="เชียงราย" data-region="ภาคเหนือ"/>
<path class="prov" d="M166,58L165,56L165,55L163,54L161,54L160,53L158,54L156,57L155,59L155,61L155,62L156,64L157,65L155,67L154,68L154,69L153,73L152,75L151,75L149,76L148,78L146,79L146,81L147,83L149,84L149,86L150,88L150,89L149,91L149,93L150,95L150,97L151,100L151,102L150,104L152,110L152,112L150,113L149,117L151,122L154,127L155,129L156,132L154,133L154,136L154,139L153,141L152,142L151,143L152,144L152,146L153,148L153,149L153,151L152,153L151,157L151,159L151,161L150,163L152,163L152,165L152,166L151,168L150,170L149,169L146,167L143,165L143,164L144,162L144,161L142,159L141,158L141,156L138,156L136,158L134,158L132,160L130,159L129,160L127,164L125,166L124,169L117,174L114,176L113,177L109,178L108,180L108,182L107,183L108,185L107,188L109,190L113,193L114,194L114,199L115,200L116,205L116,207L115,213L115,215L116,216L118,216L119,219L120,221L120,223L121,225L122,227L122,231L121,232L121,234L120,235L118,236L117,236L115,235L112,233L108,233L107,234L105,235L104,236L104,237L103,239L102,240L101,241L102,243L102,244L103,246L102,248L99,248L98,249L97,250L96,253L96,255L96,257L98,259L98,261L98,262L97,264L98,266L99,268L99,270L97,271L94,272L92,272L90,274L88,274L87,273L85,272L83,271L83,269L83,267L82,264L81,262L82,261L82,259L81,258L82,255L82,253L81,248L79,248L78,248L77,246L77,243L78,241L79,240L80,238L76,236L76,234L74,232L75,231L75,229L76,228L76,226L75,225L74,224L72,222L70,219L68,217L67,216L66,213L65,212L66,208L67,207L68,206L68,205L67,202L67,200L67,197L67,196L66,194L67,191L68,189L67,187L66,186L67,184L70,181L71,180L71,178L72,178L74,177L73,175L72,174L68,171L67,169L68,167L68,165L67,163L66,161L67,160L67,158L67,156L67,154L67,153L68,151L67,150L65,147L67,141L68,139L68,137L67,133L69,129L68,126L69,124L70,122L70,120L72,119L74,119L75,120L77,121L78,122L78,124L80,125L81,126L82,128L82,129L84,130L86,130L88,130L90,131L91,131L92,130L94,129L96,130L98,130L100,129L102,129L103,128L104,125L104,122L102,119L101,117L100,115L101,113L101,110L101,108L101,106L101,104L101,102L100,101L101,99L101,97L101,94L101,92L100,91L99,89L98,87L98,86L97,83L95,81L94,80L93,78L92,76L94,75L95,77L96,77L99,75L100,75L102,73L104,72L110,71L115,67L117,68L119,69L120,72L124,69L126,68L128,66L129,64L129,62L128,61L128,59L129,57L129,54L129,48L131,45L133,43L136,42L139,41L143,42L147,45L149,46L150,46L159,43L161,41L163,39L164,40L166,41L167,42L165,44L163,44L163,46L165,48L166,49L168,49L169,53L168,55L167,57L166,58Z" fill="#4ade80" data-province="เชียงใหม่" data-region="ภาคเหนือ"/>
<path class="prov" d="M175,97L176,99L176,102L176,104L177,105L177,107L177,111L177,114L178,115L178,117L179,119L180,122L181,125L182,127L183,128L186,130L186,132L188,133L190,133L192,133L193,134L194,136L195,138L199,140L200,141L202,143L202,145L202,146L205,147L206,149L206,151L205,152L204,154L205,158L205,160L205,161L205,163L205,164L205,166L204,167L203,168L201,169L201,171L201,173L199,175L197,180L195,182L194,184L191,189L189,191L188,191L187,193L184,195L183,197L181,201L180,203L178,207L177,208L175,210L174,210L173,211L171,211L170,210L169,212L167,215L164,218L156,228L155,230L154,231L152,231L150,232L150,233L150,235L151,236L152,238L153,239L154,239L156,239L157,238L159,237L160,236L161,237L161,238L161,240L160,242L159,244L159,245L158,246L157,248L158,250L158,252L157,253L157,255L157,257L157,259L158,260L158,261L159,263L160,265L161,266L161,268L160,270L159,271L160,273L159,274L158,276L157,277L155,278L154,277L153,275L152,274L150,273L148,269L147,267L147,264L147,262L144,262L143,263L142,265L141,266L138,266L137,265L135,265L133,264L132,264L131,262L129,261L129,258L130,255L130,253L130,250L129,247L129,246L130,245L132,244L132,243L132,240L133,238L134,236L135,234L136,232L136,231L136,229L137,228L139,228L139,227L140,226L139,223L139,222L137,221L136,220L136,218L135,217L135,214L134,212L133,210L133,209L132,206L132,204L132,202L131,201L131,199L130,197L130,195L129,194L131,192L132,191L134,191L136,190L136,189L138,188L139,186L139,184L141,181L143,177L144,175L145,174L147,173L148,173L150,172L150,170L151,169L151,167L152,166L153,164L151,163L150,162L151,160L151,158L152,154L153,152L153,150L153,148L152,147L152,144L151,144L151,142L153,141L154,139L154,137L154,134L156,132L158,132L162,127L163,126L165,126L166,124L166,123L167,121L166,120L166,117L166,114L166,112L168,108L168,107L168,105L168,102L168,101L168,98L169,96L169,94L170,92L172,91L173,93L173,94L175,96L175,97L175,97Z" fill="#4ade80" data-province="ลำปาง" data-region="ภาคเหนือ"/>
<path class="prov" d="M150,170L150,172L149,173L147,173L145,174L144,175L143,177L141,180L140,183L139,185L138,187L137,188L136,190L135,191L133,191L131,192L129,193L130,195L130,197L131,199L131,201L132,202L132,204L132,206L133,209L133,210L134,212L135,214L135,217L136,218L136,220L137,221L139,222L139,223L140,224L140,226L140,228L138,228L136,228L136,231L136,232L135,234L134,235L134,237L133,239L132,243L132,244L130,245L127,243L125,242L123,242L122,243L121,244L121,246L120,248L119,250L116,253L113,255L111,255L109,255L109,249L108,246L108,243L108,241L109,240L111,239L110,237L108,233L111,233L115,235L116,236L118,236L120,235L121,234L121,232L121,231L122,228L121,226L121,224L120,222L119,219L118,216L116,216L115,215L115,213L116,207L116,205L116,202L115,200L114,195L114,193L109,190L107,189L108,186L107,184L107,183L108,181L108,179L113,177L114,176L117,174L123,170L125,166L126,164L129,160L130,159L131,160L133,159L135,158L137,157L140,156L141,157L142,159L143,160L144,162L144,163L143,165L145,167L148,169L149,170L150,170Z" fill="#4ade80" data-province="ลำพูน" data-region="ภาคเหนือ"/>
<path class="prov" d="M258,82L264,82L266,83L267,83L270,85L272,86L274,86L276,86L278,86L279,85L281,85L282,86L283,88L283,90L283,92L282,94L280,94L279,95L278,98L277,102L278,104L279,105L280,106L281,114L281,119L281,121L283,123L286,126L287,128L288,130L285,134L284,137L282,141L281,142L281,144L281,149L280,153L280,155L282,157L282,160L281,161L279,163L277,164L277,167L275,169L271,172L270,175L268,177L268,179L269,181L271,183L266,188L263,190L260,193L259,195L259,197L258,198L258,200L257,202L256,203L255,205L254,206L253,208L250,211L248,211L245,211L243,210L242,210L240,210L237,209L236,210L234,211L233,211L231,212L229,212L227,212L226,211L225,203L226,202L228,201L229,198L229,195L230,193L231,192L232,190L231,189L231,186L232,185L234,180L234,179L234,177L234,175L232,175L231,174L229,173L227,173L226,174L224,169L224,167L224,163L225,162L223,161L222,159L222,158L223,156L224,154L223,153L222,151L222,149L221,148L222,145L226,137L228,137L231,135L231,134L230,133L229,133L229,129L230,128L232,128L234,129L235,130L235,128L235,126L236,124L237,124L239,123L240,122L239,120L239,119L239,117L239,115L238,114L238,112L238,109L239,107L238,105L237,104L235,105L233,104L232,102L232,101L234,98L235,96L236,94L238,93L236,91L237,90L239,88L240,88L246,91L248,92L249,92L252,89L255,85L256,83L257,82L258,82Z" fill="#4ade80" data-province="น่าน" data-region="ภาคเหนือ"/>
<path class="prov" d="M235,92L236,91L237,93L236,94L235,96L234,98L233,99L232,102L233,104L235,105L236,104L237,105L239,106L239,107L238,112L238,114L239,115L239,117L239,119L239,120L240,122L239,123L237,124L236,124L235,126L235,127L236,129L235,130L233,128L231,128L230,128L229,131L230,133L231,133L231,135L229,136L227,137L222,145L221,147L213,147L212,147L210,147L209,146L206,146L204,146L202,146L202,144L201,142L199,140L195,138L194,137L194,135L193,134L191,133L189,133L187,133L186,131L185,128L182,127L181,125L181,124L179,119L178,117L178,116L177,114L177,112L176,108L177,106L176,104L176,102L176,99L175,97L178,96L179,95L191,93L192,94L191,98L191,100L192,101L194,101L197,97L199,97L201,97L203,97L203,95L206,94L206,92L208,90L208,88L208,87L208,85L209,83L211,81L214,81L216,80L217,79L219,78L221,77L223,74L225,75L225,79L226,82L228,84L228,86L229,89L231,90L233,91L235,92L235,92Z" fill="#4ade80" data-province="พะเยา" data-region="ภาคเหนือ"/>
<path class="prov" d="M212,147L213,147L221,147L221,149L222,150L222,152L224,153L224,155L222,157L222,158L222,160L224,161L224,163L223,166L224,168L225,173L227,173L228,173L230,173L231,174L233,175L234,176L234,178L234,180L232,184L231,185L231,188L231,190L231,192L230,193L229,195L229,197L228,200L227,201L225,202L226,211L224,213L222,215L222,217L222,219L221,221L219,219L218,218L217,217L214,217L213,219L211,221L208,222L207,224L202,226L201,226L199,227L197,227L196,228L195,229L194,231L192,230L190,229L185,230L183,230L182,231L181,233L180,234L179,236L178,235L177,233L174,231L171,228L169,228L167,229L165,230L164,231L161,235L159,237L158,237L156,239L154,239L153,239L152,238L151,236L150,235L150,233L150,232L152,231L154,231L155,230L156,229L164,218L167,215L168,213L169,212L170,210L171,211L173,211L174,210L175,209L177,208L180,204L180,202L183,197L184,195L186,194L187,191L189,191L191,189L193,185L195,182L196,181L199,175L201,173L201,172L201,170L201,168L203,168L204,167L205,165L205,163L205,161L205,160L205,158L205,155L204,154L205,152L206,150L205,147L207,146L210,147L212,147L212,147Z" fill="#4ade80" data-province="แพร่" data-region="ภาคเหนือ"/>
<path class="prov" d="M259,239L261,238L263,237L261,241L259,244L258,246L258,248L261,249L261,251L259,252L259,254L258,256L258,258L259,262L259,264L259,266L260,267L261,267L263,268L265,268L266,270L267,270L268,272L270,272L271,274L272,276L272,278L271,280L270,285L269,288L268,292L268,294L268,296L268,297L268,299L269,300L270,302L268,302L266,305L264,306L263,308L261,310L259,311L258,312L259,314L259,315L260,318L260,319L259,321L257,321L256,323L255,326L255,328L255,330L254,332L252,336L251,338L250,339L248,341L245,342L245,343L243,347L238,342L237,341L237,339L236,336L235,334L234,332L232,332L230,332L228,332L227,332L222,333L220,333L218,333L217,334L216,332L215,331L215,329L213,327L210,328L209,329L205,333L203,334L201,335L199,335L199,333L198,331L197,330L195,329L193,329L192,328L190,326L190,324L190,320L192,318L192,317L190,316L189,314L190,313L191,312L193,306L195,306L197,306L199,304L200,303L204,303L206,302L205,301L206,299L206,297L203,294L200,293L198,291L195,288L194,286L192,285L191,283L191,281L193,281L195,281L198,280L199,281L207,278L209,278L211,278L214,276L215,274L214,270L214,268L215,267L217,265L219,264L220,264L227,261L230,260L231,262L233,261L235,261L236,260L238,258L239,257L242,254L243,253L246,251L248,249L250,245L251,244L254,242L255,240L256,238L257,237L259,238L259,239Z" fill="#4ade80" data-province="พิษณุโลก" data-region="ภาคเหนือ"/>
<path class="prov" d="M179,236L180,234L181,233L182,231L183,230L185,230L190,229L191,230L192,231L192,233L193,235L195,237L195,240L195,244L194,246L192,247L192,249L193,250L195,251L195,253L197,254L198,256L199,257L199,259L199,260L197,261L197,262L198,266L198,269L197,271L196,272L195,274L195,275L196,277L196,281L194,281L193,281L191,281L192,284L194,286L194,287L198,291L200,293L203,294L205,297L206,299L205,300L206,302L204,303L201,303L199,303L199,305L197,305L194,305L191,312L190,313L189,314L190,316L192,317L193,318L190,320L189,318L188,317L187,316L185,316L179,316L177,316L166,309L166,307L165,305L164,304L162,304L158,304L155,305L152,303L150,302L149,300L147,300L147,298L147,295L148,293L148,291L147,289L149,287L150,285L150,284L150,282L150,273L152,273L153,275L154,277L155,278L157,277L158,276L159,274L160,273L159,271L160,270L161,269L161,267L161,265L160,264L158,263L158,260L158,259L157,257L157,255L157,253L158,252L158,250L157,249L157,247L158,246L159,244L159,243L160,241L161,239L161,237L161,235L164,231L165,230L166,229L168,228L169,228L174,230L176,233L177,234L178,236L179,236Z" fill="#4ade80" data-province="สุโขทัย" data-region="ภาคเหนือ"/>
<path class="prov" d="M263,237L261,238L259,239L258,237L256,238L255,239L254,241L251,244L250,245L248,249L246,251L243,253L242,254L239,257L238,258L237,260L235,261L233,261L231,262L231,260L228,260L221,263L220,264L218,264L215,267L214,268L214,270L215,274L214,275L211,278L209,278L207,278L199,281L198,280L196,281L196,277L195,275L195,274L196,272L197,271L198,269L198,266L198,264L197,262L197,261L199,260L199,258L199,257L197,254L195,253L195,251L193,250L192,249L192,247L194,246L195,245L195,241L195,237L193,235L192,234L192,232L191,231L190,229L192,230L194,231L195,230L196,228L197,227L199,227L200,226L202,226L206,225L208,222L211,221L212,219L213,218L216,217L217,217L218,219L220,221L222,219L222,217L222,215L223,213L226,212L227,212L230,212L232,212L234,211L236,210L237,209L239,210L241,210L243,210L245,211L247,211L249,211L253,208L254,207L255,205L256,203L257,202L258,201L258,199L259,197L260,196L260,193L263,190L266,188L270,184L276,186L276,188L275,189L274,190L274,193L275,195L277,197L277,199L276,202L276,205L277,208L276,210L274,211L272,214L271,217L270,219L268,220L266,222L265,224L266,227L264,229L263,230L263,232L263,234L263,235L263,237L263,237Z" fill="#4ade80" data-province="อุตรดิตถ์" data-region="ภาคเหนือ"/>
<path class="prov" d="M102,405L104,406L105,406L110,415L109,416L112,418L113,421L114,422L117,427L120,431L121,434L123,435L127,439L127,441L127,443L128,445L128,448L128,450L132,454L133,455L135,455L137,455L139,455L141,455L143,456L144,457L147,456L148,458L149,460L149,464L149,465L148,467L148,468L148,470L150,470L153,474L155,475L156,475L158,475L159,477L158,479L160,481L161,481L163,481L164,479L165,478L165,476L165,475L165,473L167,474L169,474L170,473L172,472L174,472L179,479L181,481L182,482L185,484L186,484L188,486L187,487L187,489L188,490L189,491L189,493L187,494L185,495L184,510L185,513L185,516L184,519L181,524L181,529L183,531L184,532L184,535L185,537L186,538L187,540L188,541L188,542L186,547L186,548L184,549L184,552L182,552L179,552L177,552L176,552L171,554L168,554L167,556L166,557L164,557L162,556L161,554L159,555L153,558L151,558L150,557L148,556L146,557L145,557L143,558L142,559L140,560L138,560L136,557L134,552L135,549L134,547L132,547L132,545L129,543L128,540L127,538L125,535L125,534L124,532L123,530L121,529L119,528L111,521L110,519L108,516L106,516L104,514L102,513L101,512L97,507L92,496L91,495L90,492L89,490L88,488L80,479L76,472L76,471L76,469L75,468L75,466L75,463L74,461L73,458L73,456L73,455L73,452L71,450L71,448L71,446L72,443L73,442L72,439L74,439L76,438L77,437L79,433L81,433L85,435L86,435L87,434L86,433L87,431L87,428L90,427L92,425L94,426L95,427L96,428L96,430L98,428L99,424L98,420L97,408L97,403L99,403L101,404L102,405Z" fill="#c084fc" data-province="กาญจนบุรี" data-region="ภาคตะวันตก"/>
<path class="prov" d="M155,305L158,304L162,304L164,304L165,305L166,307L166,309L176,316L179,316L184,316L187,316L188,317L189,318L190,320L190,323L190,325L191,328L193,328L195,329L196,330L198,331L199,333L199,335L196,343L196,345L196,347L194,352L193,354L193,356L192,359L190,366L190,369L185,374L183,376L182,379L181,381L181,382L180,384L178,389L177,390L175,393L173,392L172,390L171,387L171,386L169,384L167,383L166,382L164,382L162,382L160,383L158,383L156,383L154,382L152,382L150,383L149,383L147,384L146,383L143,381L141,381L139,381L138,383L136,383L135,385L134,386L133,383L134,382L133,379L133,377L133,375L131,374L130,373L129,365L129,363L130,362L130,359L129,358L128,354L129,349L129,348L129,345L129,343L128,342L127,339L128,337L129,337L132,336L134,337L135,337L138,336L139,335L140,333L143,332L145,331L146,330L146,327L145,325L145,323L146,321L148,318L149,317L149,315L149,313L149,312L150,311L151,309L151,306L152,303L154,305L155,305Z" fill="#4ade80" data-province="กำแพงเพชร" data-region="ภาคเหนือ"/>
<path class="prov" d="M215,332L216,334L218,333L220,333L222,333L226,332L228,332L230,332L232,332L234,332L235,334L236,336L236,337L237,341L238,342L243,347L244,351L245,354L245,356L244,357L241,362L240,363L241,367L240,370L245,373L247,374L248,375L250,376L249,381L247,381L245,381L243,380L240,380L239,379L237,380L235,380L234,381L232,381L231,381L228,381L226,382L223,381L221,381L219,380L218,380L217,382L215,383L214,381L212,381L210,380L209,379L208,378L207,376L206,374L205,371L205,369L204,367L203,366L203,364L202,363L200,361L199,357L199,355L199,351L198,349L196,347L195,346L196,343L199,335L201,335L203,334L205,334L208,330L210,328L213,327L214,328L215,331L215,332Z" fill="#4ade80" data-province="พิจิตร" data-region="ภาคเหนือ"/>
<path class="prov" d="M288,289L289,288L292,289L293,288L295,289L296,288L300,290L301,291L303,294L304,295L306,295L307,294L308,292L309,291L310,293L312,298L314,299L315,301L315,303L315,308L315,310L315,312L315,313L317,314L320,313L320,315L319,319L318,320L316,322L315,322L314,320L312,320L310,320L309,320L307,319L306,319L304,321L302,320L301,321L301,322L301,324L300,325L300,327L300,328L301,330L299,332L298,333L298,335L297,337L296,339L294,342L293,343L293,345L292,346L290,352L290,354L290,355L290,357L290,358L289,360L288,369L288,374L289,376L290,378L292,378L291,381L291,384L290,385L289,386L288,388L288,395L290,398L292,398L293,400L293,401L291,405L291,408L291,411L291,413L291,416L291,419L291,421L291,423L289,428L286,432L284,429L283,427L282,425L281,424L279,424L277,424L275,425L274,424L272,422L270,422L268,421L265,418L263,417L261,418L258,419L254,418L248,416L248,415L250,414L251,412L252,410L252,408L254,406L253,403L254,401L253,399L252,396L252,391L251,389L252,387L251,386L250,384L249,381L250,378L248,375L247,374L245,373L240,371L241,367L240,364L241,363L244,357L245,356L245,354L244,351L243,347L244,345L245,342L247,341L250,339L251,339L252,337L254,332L255,330L255,328L255,326L255,324L257,322L258,321L260,320L260,319L260,317L259,315L258,313L258,311L260,310L262,308L264,307L265,306L268,302L270,302L272,302L274,300L274,298L274,296L275,295L274,293L274,292L276,291L278,290L279,288L279,287L279,285L282,286L284,287L286,288L288,289L288,289Z" fill="#4ade80" data-province="เพชรบูรณ์" data-region="ภาคเหนือ"/>
<path class="prov" d="M171,461L172,460L171,458L173,457L177,459L183,460L188,463L193,463L195,464L197,463L199,463L200,462L200,460L202,460L204,460L206,462L211,460L211,462L210,463L212,464L212,469L212,470L213,473L212,475L211,476L212,479L212,481L212,484L212,486L211,488L212,489L211,491L211,492L211,494L212,496L213,497L214,498L215,501L215,503L216,505L216,506L216,511L214,517L214,519L212,523L209,525L208,526L206,526L198,526L196,526L192,529L189,532L184,532L183,531L182,530L181,525L184,520L185,517L185,513L184,510L185,495L187,494L189,493L189,492L188,490L187,489L187,487L188,486L187,484L185,484L182,483L181,481L179,479L175,473L173,472L171,472L170,474L168,473L166,473L165,475L165,476L165,478L164,479L163,481L161,481L160,482L158,479L159,478L159,476L157,475L155,475L153,474L150,470L149,470L148,468L148,467L149,465L149,464L149,462L149,458L147,457L148,455L149,452L150,451L152,452L154,453L156,453L157,456L164,458L165,459L167,460L171,461L171,461Z" fill="#f87171" data-province="สุพรรณบุรี" data-region="ภาคกลาง"/>
<path class="prov" d="M111,255L113,255L115,254L119,251L120,249L121,247L121,245L122,243L123,242L125,242L127,243L129,245L129,247L130,249L130,253L130,255L129,258L129,260L130,262L131,263L132,264L134,264L135,265L137,265L140,267L142,265L142,263L143,262L146,262L147,263L147,265L147,268L150,273L150,282L150,284L150,285L149,287L147,289L148,291L148,293L148,295L147,297L147,300L149,300L150,302L151,303L151,305L151,308L150,310L149,311L149,313L149,315L149,317L148,318L147,321L146,322L145,323L145,326L146,329L145,331L144,332L141,332L140,334L138,335L136,337L134,337L133,337L131,337L129,336L127,338L128,341L129,343L129,345L129,347L129,349L128,352L128,357L129,358L130,360L130,362L129,364L130,373L131,374L133,375L133,377L133,379L133,381L133,383L134,386L134,388L135,390L136,391L137,394L137,396L137,398L136,400L136,402L135,404L135,407L134,408L133,410L132,411L131,412L131,415L132,416L133,418L132,419L132,423L132,425L131,426L130,431L130,433L129,435L129,436L127,439L124,436L121,434L120,432L117,427L115,423L113,422L112,420L109,416L110,415L105,406L104,406L102,405L100,403L97,402L97,399L97,397L99,389L99,384L99,382L99,379L99,376L97,373L98,371L99,371L101,372L103,370L104,369L104,367L106,365L112,366L113,367L114,367L117,364L117,362L117,360L117,358L118,357L120,354L121,349L122,346L120,342L119,341L117,340L117,337L116,338L115,343L114,345L110,349L108,352L105,352L104,345L103,343L103,340L103,338L99,331L98,330L99,328L98,327L97,325L95,323L94,322L93,319L91,317L91,314L92,312L94,311L95,309L94,308L93,307L94,305L96,306L95,304L94,302L93,301L92,298L90,295L88,292L87,291L82,290L80,289L79,287L80,286L78,286L78,284L77,282L75,278L73,277L66,270L66,268L66,266L66,264L64,263L62,261L61,258L59,255L58,253L56,252L53,249L54,248L57,248L59,247L67,243L68,242L71,242L73,242L74,240L76,239L80,238L80,239L78,241L77,242L77,246L78,248L79,248L81,248L82,252L82,255L81,258L82,259L82,261L81,262L82,263L83,267L83,268L83,270L85,271L86,272L87,273L89,274L92,272L93,272L96,272L98,271L99,269L99,267L98,266L98,263L98,262L98,260L97,258L96,255L96,253L97,250L98,249L99,248L101,248L102,247L102,245L102,243L102,242L102,240L103,239L104,237L104,236L105,235L107,234L108,233L110,237L111,239L109,240L108,241L108,243L108,245L108,247L109,254L111,255L111,255Z" fill="#4ade80" data-province="ตาก" data-region="ภาคเหนือ"/>
<path class="prov" d="M163,411L165,410L166,409L168,407L169,406L171,405L173,403L176,401L178,401L181,404L183,405L185,406L186,405L187,406L188,411L190,413L191,415L193,415L194,415L200,420L201,422L201,424L199,424L200,426L202,429L202,431L201,433L202,434L201,435L200,434L198,433L196,433L194,433L192,433L191,433L189,433L188,432L183,431L181,431L179,432L178,432L178,434L178,437L179,439L179,441L180,443L183,448L184,450L183,452L181,453L180,455L179,455L178,457L178,459L177,459L174,457L173,457L172,459L172,461L167,460L165,459L164,458L157,456L156,454L155,453L153,452L151,451L149,452L148,455L147,456L145,457L144,456L142,456L140,456L138,455L135,455L133,455L132,454L128,450L128,449L128,446L128,444L127,442L127,439L128,437L129,435L130,433L130,431L131,428L131,426L132,424L132,419L133,418L132,416L131,415L131,412L132,411L133,410L134,408L135,407L135,405L136,402L136,400L137,398L137,396L137,394L139,394L142,395L143,396L144,398L147,399L153,403L154,405L157,407L159,409L160,411L162,411L163,411Z" fill="#4ade80" data-province="อุทัยธานี" data-region="ภาคเหนือ"/>
<path class="prov" d="M218,474L220,473L221,475L223,476L224,477L225,477L226,478L230,479L230,480L232,482L232,484L232,486L231,490L231,492L231,499L230,502L228,501L226,501L226,499L226,497L224,496L223,497L220,498L218,497L216,498L214,498L213,497L212,496L211,494L211,492L211,491L212,490L211,488L212,487L212,484L212,482L212,480L211,478L211,476L213,473L215,473L217,474L218,474Z" fill="#f87171" data-province="อ่างทอง" data-region="ภาคกลาง"/>
<path class="prov" d="M218,443L217,445L216,447L217,451L216,452L215,454L217,455L218,456L216,459L214,460L211,460L208,462L205,461L202,460L201,459L200,461L199,463L197,463L195,464L193,463L188,463L183,460L178,460L178,458L179,455L180,455L181,453L183,452L184,450L183,448L180,443L179,441L179,439L178,437L178,435L178,433L179,432L180,431L183,431L187,432L189,433L191,433L192,433L194,433L196,433L198,433L199,433L200,435L202,434L201,433L202,432L202,429L201,427L199,425L199,424L201,422L203,422L204,422L206,423L208,426L210,427L211,428L213,429L215,433L218,443L218,443Z" fill="#f87171" data-province="ชัยนาท" data-region="ภาคกลาง"/>
<path class="prov" d="M257,419L261,418L263,417L265,418L268,420L269,422L271,422L274,424L275,425L277,424L279,424L281,424L282,425L283,427L283,429L286,432L286,434L285,436L285,439L285,447L285,448L286,449L289,451L290,451L292,452L293,454L293,456L296,463L297,466L296,468L293,470L292,471L290,472L289,474L288,476L286,477L285,478L282,478L281,477L279,476L278,474L277,473L276,472L275,470L271,468L268,469L267,470L265,472L265,473L263,476L262,477L260,477L259,475L257,475L257,473L257,471L257,470L255,468L255,466L253,466L251,467L250,469L249,470L249,471L247,473L246,476L244,478L240,480L239,481L238,484L236,484L234,483L232,482L231,481L230,479L231,477L230,474L230,470L229,468L228,466L227,463L228,460L228,459L228,454L227,452L228,450L229,448L231,445L230,443L232,442L233,441L233,439L234,437L235,435L236,434L238,433L239,431L247,423L248,421L248,419L248,416L254,418L257,419L257,419Z" fill="#f87171" data-province="ลพบุรี" data-region="ภาคกลาง"/>
<path class="prov" d="M294,503L295,505L296,507L298,507L299,508L300,510L301,512L301,514L300,515L299,516L296,517L295,517L293,516L293,517L293,519L292,520L287,524L286,526L287,528L288,531L288,532L286,533L284,533L282,533L280,534L279,536L277,537L275,538L275,540L270,540L262,540L260,541L260,536L260,520L262,517L262,514L263,513L264,514L266,513L268,511L268,509L269,508L269,505L271,506L274,506L276,508L276,509L278,509L279,508L280,506L280,503L281,502L281,500L282,499L284,499L284,497L286,497L288,499L294,503L294,503Z" fill="#f87171" data-province="นครนายก" data-region="ภาคกลาง"/>
<path class="prov" d="M303,503L306,502L308,502L309,504L311,506L314,508L316,511L317,512L318,510L319,509L321,508L323,509L325,508L326,506L328,506L328,507L330,508L331,507L333,508L333,509L332,512L331,514L331,516L332,517L334,519L336,521L338,522L337,527L336,528L334,530L334,532L332,533L330,533L328,535L328,537L328,539L327,541L325,543L325,545L325,547L324,550L325,551L327,552L328,555L328,557L326,560L323,560L321,559L320,556L318,554L314,554L313,557L312,558L309,556L307,555L305,556L305,558L303,556L290,549L288,549L286,549L284,548L282,548L280,548L278,548L277,550L276,548L276,546L276,544L275,540L275,538L277,537L279,536L280,534L282,533L284,533L285,533L287,533L288,531L287,529L286,527L287,525L292,520L293,519L293,517L293,516L295,517L296,517L298,516L300,516L301,514L301,513L300,511L299,510L299,508L297,507L296,506L294,504L296,503L297,502L298,500L300,501L302,503L303,503L303,503Z" fill="#f87171" data-province="ปราจีนบุรี" data-region="ภาคกลาง"/>
<path class="prov" d="M212,381L214,382L216,383L218,380L219,380L221,381L222,380L225,381L227,381L230,381L232,381L233,381L235,380L237,380L238,379L240,380L243,380L244,380L246,381L248,381L249,383L250,385L252,386L252,388L252,391L252,396L253,399L254,400L253,402L254,405L252,408L252,410L252,411L250,413L249,414L248,416L248,419L248,421L247,423L239,431L238,433L236,434L235,435L234,437L233,439L233,441L232,442L231,443L231,445L230,448L228,450L227,452L223,450L221,447L221,445L221,444L218,443L215,433L213,429L211,428L210,427L208,426L206,423L204,422L203,422L201,422L200,420L195,415L193,415L191,415L190,413L188,411L187,406L187,405L185,406L183,405L181,405L179,402L177,401L174,402L171,405L169,406L168,407L167,409L165,410L164,411L162,411L159,410L158,408L155,406L153,403L147,400L145,398L144,397L142,395L141,394L138,394L137,392L135,390L134,389L134,386L135,385L136,383L137,383L139,382L140,381L142,381L145,383L147,384L148,384L150,383L152,382L154,382L156,383L158,383L160,384L161,382L163,382L164,382L166,383L169,384L171,386L171,387L172,389L172,391L173,392L177,390L178,389L180,384L181,382L181,381L182,379L183,376L185,374L189,369L190,366L192,359L193,356L193,354L194,352L197,348L198,350L199,354L199,357L200,360L202,363L203,364L203,366L204,367L205,369L205,371L206,374L207,376L208,378L209,379L210,380L211,381L212,381Z" fill="#4ade80" data-province="นครสวรรค์" data-region="ภาคเหนือ"/>
<path class="prov" d="M238,484L236,488L237,491L238,492L239,493L241,493L244,492L245,491L248,491L250,492L250,494L249,496L250,498L249,501L249,503L249,504L251,506L251,507L251,509L250,511L252,511L253,513L253,514L253,516L253,518L242,524L240,526L239,527L235,528L233,528L231,528L228,528L221,528L220,527L218,526L217,528L216,525L215,524L213,523L214,520L214,517L216,511L216,506L216,505L215,503L215,501L214,498L216,498L218,497L220,498L221,497L224,496L225,496L226,498L226,501L228,501L229,502L231,501L231,493L231,492L232,486L232,484L232,482L234,483L236,484L238,484L238,484Z" fill="#f87171" data-province="พระนครศรีอยุธยา" data-region="ภาคกลาง"/>
<path class="prov" d="M260,520L260,536L259,541L258,542L256,542L254,543L244,544L237,542L235,542L232,542L230,541L225,539L223,538L222,537L220,534L220,532L221,530L221,528L228,528L231,528L233,528L234,528L238,527L240,526L242,524L253,518L256,516L258,518L260,520L260,520Z" fill="#f87171" data-province="ปทุมธานี" data-region="ภาคกลาง"/>
<path class="prov" d="M227,452L228,454L228,457L228,460L227,462L228,466L228,468L229,469L230,474L230,476L230,479L227,478L226,477L224,477L223,476L221,475L220,473L218,474L216,473L213,473L212,471L212,469L212,465L211,464L210,463L211,461L214,460L216,459L218,457L217,455L215,454L216,453L217,452L218,450L216,447L217,446L217,444L219,443L221,444L221,445L222,449L227,452L227,452Z" fill="#f87171" data-province="สิงห์บุรี" data-region="ภาคกลาง"/>
<path class="prov" d="M261,477L262,477L265,474L265,472L267,470L268,469L271,468L274,469L276,472L277,473L278,474L279,476L280,490L279,492L278,493L280,495L281,496L282,499L281,500L281,502L280,503L280,505L280,507L278,509L277,509L276,508L274,507L272,507L270,505L269,506L269,508L268,510L267,512L266,513L264,514L262,513L262,516L260,520L258,518L257,516L253,518L253,516L253,514L253,513L252,511L251,511L251,509L251,507L251,506L250,505L249,503L249,501L250,498L249,496L250,495L250,493L248,491L247,491L245,491L242,493L240,493L238,493L237,491L236,490L238,484L239,481L240,480L243,478L246,476L247,475L249,471L249,470L250,469L251,467L252,467L254,466L255,467L256,469L257,470L257,472L257,474L258,475L260,476L261,477Z" fill="#f87171" data-province="สระบุรี" data-region="ภาคกลาง"/>
<path class="prov" d="M256,562L254,562L252,562L251,561L249,561L247,561L245,561L245,563L244,565L243,566L238,565L237,564L238,563L237,561L235,561L235,563L233,565L231,565L231,566L231,569L230,571L228,573L229,578L226,579L224,579L225,577L225,573L224,569L223,567L221,566L220,559L219,558L220,556L220,554L227,554L229,554L231,554L231,552L232,550L235,542L237,542L242,544L254,543L256,542L258,542L258,550L260,551L260,553L259,555L256,560L256,562L256,562Z" fill="#f87171" data-province="กรุงเทพมหานคร" data-region="ภาคกลาง"/>
<path class="prov" d="M221,528L221,530L220,531L220,533L222,537L223,538L225,539L229,541L231,542L235,542L233,550L231,552L231,553L229,554L227,554L220,554L219,551L218,548L217,546L217,543L217,541L217,540L217,538L216,536L215,535L216,532L216,528L217,527L220,527L221,528L221,528Z" fill="#f87171" data-province="นนทบุรี" data-region="ภาคกลาง"/>
<path class="prov" d="M216,528L216,531L215,534L215,536L216,537L217,539L217,541L217,543L217,546L218,547L219,551L220,554L220,556L219,558L220,559L216,561L215,563L215,565L212,565L210,564L205,564L202,563L201,562L199,562L200,560L199,558L196,560L195,561L194,559L194,557L194,555L194,553L194,551L194,549L194,547L194,545L193,544L189,542L187,540L187,538L185,537L184,536L184,534L188,532L192,529L195,526L197,526L206,526L207,526L209,525L212,523L215,524L216,524L216,528L216,528Z" fill="#f87171" data-province="นครปฐม" data-region="ภาคกลาง"/>
<path class="prov" d="M187,592L188,594L187,596L188,598L189,599L190,598L191,596L192,596L193,595L195,598L197,601L201,605L202,606L202,608L203,611L204,614L203,617L201,620L200,624L199,630L196,636L195,639L194,642L194,645L194,648L192,649L190,649L185,649L184,650L181,652L177,652L175,653L173,654L171,655L169,655L168,654L164,652L162,652L158,653L156,654L155,652L152,650L150,648L149,647L148,646L147,643L146,642L144,642L143,640L143,637L143,635L141,633L140,631L140,629L139,626L139,624L139,623L140,621L139,619L137,618L135,615L134,614L135,612L135,610L135,608L135,606L135,605L136,603L140,602L142,602L145,603L146,606L148,607L150,605L150,603L151,601L152,600L154,601L156,602L157,603L159,604L161,603L163,604L164,603L168,603L172,602L174,601L174,600L174,597L175,596L176,594L180,592L183,592L187,592L187,592Z" fill="#c084fc" data-province="เพชรบุรี" data-region="ภาคตะวันตก"/>
<path class="prov" d="M163,781L161,781L160,782L158,783L157,784L153,784L151,784L150,783L148,784L146,784L144,783L141,781L139,780L138,778L139,776L140,774L141,773L142,773L145,765L146,763L148,760L149,758L150,755L153,750L154,747L154,745L157,742L158,740L158,739L158,734L158,732L160,730L162,730L165,730L170,722L170,720L171,715L170,713L169,712L168,711L166,708L167,706L168,703L168,702L166,699L164,697L164,695L165,691L166,690L165,688L160,689L159,688L160,686L161,684L160,682L159,680L159,678L158,676L157,673L157,669L157,667L155,663L155,662L156,659L156,657L156,655L158,653L161,652L164,652L167,653L169,655L170,655L172,655L173,654L177,652L179,653L184,650L185,649L189,649L191,649L194,648L195,654L196,656L195,661L196,663L198,669L197,671L196,677L196,679L198,680L198,683L198,685L197,686L196,690L194,694L187,702L185,706L185,709L186,712L184,713L184,715L184,718L184,720L182,721L180,723L174,734L174,736L172,738L172,742L172,743L171,745L169,750L169,751L168,753L167,758L167,760L168,763L168,765L167,766L167,765L165,766L163,768L162,770L162,773L163,776L163,779L163,781L163,781Z" fill="#c084fc" data-province="ประจวบคีรีขันธ์" data-region="ภาคตะวันตก"/>
<path class="prov" d="M195,561L198,559L199,560L200,561L201,562L202,563L202,566L202,568L201,569L200,572L200,574L200,576L200,578L198,577L195,579L194,578L192,577L191,579L190,580L190,582L190,584L189,586L188,588L187,592L183,592L181,592L177,593L175,595L174,597L174,600L174,601L172,602L168,603L165,602L163,604L162,604L160,604L158,603L156,602L155,601L153,600L152,600L151,602L150,604L148,607L146,606L146,604L142,602L141,600L141,598L140,595L140,593L141,592L141,590L141,585L141,584L139,571L138,565L139,563L139,561L140,560L142,559L143,558L145,557L146,557L148,556L150,557L151,558L153,558L159,555L160,554L162,555L163,557L165,557L167,556L168,554L171,554L174,552L177,552L179,552L182,552L183,552L184,549L186,548L186,547L188,543L189,542L192,543L193,544L194,546L194,548L194,550L194,553L194,554L194,556L193,558L194,560L195,561Z" fill="#c084fc" data-province="ราชบุรี" data-region="ภาคตะวันตก"/>
<path class="prov" d="M254,563L260,564L262,566L262,567L261,569L260,570L259,571L259,573L257,574L256,575L256,578L255,580L253,579L250,579L248,578L244,577L242,576L239,574L237,573L238,571L238,569L237,571L237,575L235,577L229,578L228,573L230,571L231,570L231,567L231,565L233,565L234,563L235,562L237,561L238,562L237,564L238,565L243,566L244,565L245,563L245,561L247,561L249,561L251,561L252,562L254,562L254,563Z" fill="#f87171" data-province="สมุทรปราการ" data-region="ภาคกลาง"/>
<path class="prov" d="M224,579L221,579L217,578L215,578L213,580L207,583L205,583L203,584L203,582L200,578L200,576L200,574L200,572L200,570L202,568L202,567L202,563L205,564L209,564L211,565L215,565L215,563L216,562L219,560L221,565L222,567L223,568L225,573L225,577L224,579L224,579Z" fill="#f87171" data-province="สมุทรสาคร" data-region="ภาคกลาง"/>
<path class="prov" d="M195,579L197,578L199,578L202,582L203,584L202,585L200,586L199,588L197,588L198,590L196,592L194,593L194,595L193,596L191,596L190,598L190,599L188,598L187,597L188,594L187,592L188,588L189,586L190,585L189,582L190,580L191,579L191,577L194,578L195,579Z" fill="#c084fc" data-province="สมุทรสงคราม" data-region="ภาคตะวันตก"/>
<path class="prov" d="M498,431L499,432L500,433L501,434L503,435L506,435L507,436L509,436L511,437L512,436L514,436L516,436L517,437L519,438L520,440L520,442L521,442L522,444L520,446L519,446L519,448L519,451L519,454L519,456L519,459L521,462L523,463L526,464L527,465L529,468L528,469L528,471L531,479L532,480L534,484L533,484L531,484L530,486L529,492L531,495L531,497L532,499L530,501L531,502L533,502L535,505L533,505L531,504L529,504L528,503L526,502L524,502L522,504L520,504L519,502L518,504L516,504L515,503L512,504L511,507L509,508L507,507L505,507L503,509L502,508L494,507L490,505L489,505L487,506L485,506L484,505L482,508L480,507L477,507L475,509L476,501L476,499L475,496L475,494L475,493L476,487L476,484L473,479L472,478L472,474L472,472L470,472L467,470L466,468L467,467L467,465L468,463L468,462L470,460L470,458L471,457L472,456L473,454L473,452L472,451L472,449L471,446L471,445L470,443L470,442L470,440L471,438L471,437L470,435L471,434L472,433L473,432L474,430L476,429L477,428L476,426L476,424L474,423L472,423L471,422L474,418L475,417L476,415L477,413L479,412L480,411L482,414L482,416L484,418L488,426L490,427L492,429L495,429L497,430L498,431Z" fill="#fbbf24" data-province="ศรีสะเกษ" data-region="ภาคอีสาน"/>
<path class="prov" d="M569,375L568,376L567,377L565,379L565,382L566,385L569,392L570,394L572,395L575,394L576,395L579,396L582,398L584,401L585,405L584,409L583,414L582,416L582,419L582,421L581,422L578,424L575,425L574,426L573,428L573,429L576,430L579,430L579,432L579,434L577,436L575,438L572,441L571,444L571,446L571,447L573,449L575,451L576,451L576,453L578,456L581,457L578,460L577,462L578,464L578,466L576,466L576,468L576,470L575,470L574,472L574,474L574,476L575,477L574,482L574,484L575,489L575,492L574,494L572,497L571,499L570,500L569,502L566,504L565,504L564,506L561,505L559,507L557,509L554,509L551,511L549,515L547,519L544,520L542,519L541,518L539,513L539,509L538,507L534,506L533,502L531,502L530,501L531,499L531,497L531,495L529,493L530,486L531,485L532,484L534,485L533,481L532,480L528,472L528,470L529,468L527,465L526,464L524,463L522,463L520,460L519,456L519,454L519,452L519,448L519,446L520,446L522,444L522,443L521,442L521,440L519,438L519,437L517,436L514,436L513,436L511,437L510,436L508,436L506,435L504,435L502,434L501,433L501,431L502,429L502,426L500,425L498,424L498,422L498,421L499,419L499,417L499,415L499,414L501,414L504,413L506,413L507,411L507,410L513,411L515,411L516,410L517,408L517,406L517,404L519,405L521,408L521,410L523,410L525,410L526,411L527,414L528,416L531,415L532,417L533,418L535,417L536,415L536,413L536,411L536,409L536,407L539,396L541,394L542,391L541,387L542,385L543,384L544,382L543,380L542,378L543,375L547,371L547,368L557,371L560,371L568,374L569,375L569,375Z" fill="#fbbf24" data-province="อุบลราชธานี" data-region="ภาคอีสาน"/>
<path class="prov" d="M548,368L547,371L543,375L542,378L542,379L544,381L544,383L543,385L542,386L542,390L541,394L539,396L536,407L536,409L536,411L536,413L536,415L535,417L533,418L532,417L531,415L529,416L528,415L527,413L526,411L523,410L521,410L521,408L519,405L517,404L516,405L517,407L516,409L515,411L513,411L507,409L504,408L504,406L503,405L502,404L502,402L502,400L501,398L501,396L501,395L501,393L502,391L502,390L503,388L503,386L503,384L504,382L505,380L506,379L507,377L508,375L509,372L510,369L511,368L513,366L514,366L518,364L524,363L526,363L527,360L529,360L532,359L533,358L534,356L538,354L539,352L541,352L542,354L542,356L542,360L543,362L543,364L544,366L546,367L548,368L548,368Z" fill="#fbbf24" data-province="อำนาจเจริญ" data-region="ภาคอีสาน"/>
<path class="prov" d="M501,347L502,348L504,348L506,348L507,349L508,350L509,350L511,352L512,354L512,355L514,356L515,358L517,358L517,356L519,357L521,358L527,359L527,362L524,363L518,364L514,366L513,366L511,368L510,369L509,372L509,374L507,376L506,379L505,380L504,382L503,383L503,385L503,388L502,390L502,391L501,393L501,395L501,396L501,398L502,400L502,402L502,403L502,405L503,406L504,408L507,409L507,411L506,412L505,413L502,413L500,413L499,415L499,417L499,419L498,421L498,422L498,424L500,425L502,425L502,428L501,430L500,433L499,432L499,431L497,430L495,429L493,429L490,427L489,427L484,418L482,416L482,414L481,411L482,409L484,408L485,408L485,405L483,401L482,399L481,396L481,393L479,390L477,388L477,390L475,391L474,391L472,392L472,390L473,388L473,386L473,384L472,382L473,381L473,379L473,377L475,377L477,377L478,377L479,376L480,373L479,371L478,369L479,367L482,366L483,365L484,364L485,363L487,362L488,360L489,358L490,356L491,355L493,355L496,349L497,348L499,347L501,347L501,347Z" fill="#fbbf24" data-province="ยโสธร" data-region="ภาคอีสาน"/>
<path class="prov" d="M291,582L293,581L294,583L296,585L297,585L299,585L301,586L303,589L304,590L305,592L307,594L309,594L312,598L315,603L315,605L313,606L311,607L309,606L308,607L306,608L305,610L305,612L303,613L302,613L300,613L299,614L298,616L296,615L293,617L290,615L289,613L287,613L286,613L285,615L283,614L281,614L278,612L277,613L277,615L278,616L276,617L273,616L271,617L270,618L271,619L272,621L272,623L272,625L272,626L270,629L270,630L269,632L266,635L266,636L266,638L265,640L264,645L264,647L264,649L264,651L261,649L262,648L260,646L258,646L256,647L257,645L256,643L254,642L256,639L257,637L258,638L259,636L260,634L260,631L257,626L257,624L258,623L258,621L260,620L261,618L261,616L259,614L259,612L257,611L259,608L260,606L261,604L262,601L261,598L260,595L260,593L261,591L263,590L265,588L265,586L265,585L264,583L264,581L266,581L267,580L268,579L269,577L269,575L270,574L272,574L273,573L274,572L276,571L279,572L284,573L285,574L286,576L287,578L289,579L291,581L291,582Z" fill="#60a5fa" data-province="ชลบุรี" data-region="ภาคตะวันออก"/>
<path class="prov" d="M275,540L276,543L276,546L275,547L276,549L278,549L279,548L281,548L283,548L286,548L288,549L289,549L303,556L304,558L305,556L307,555L309,556L311,557L313,557L313,555L317,554L319,555L321,559L322,560L325,560L326,564L327,565L328,567L329,569L328,570L330,571L333,571L334,572L334,574L334,578L333,579L331,579L330,581L331,582L332,585L333,587L334,591L331,594L329,596L327,598L327,600L325,599L323,600L322,602L319,604L317,604L315,605L315,603L312,598L310,595L307,594L305,592L304,591L303,589L302,586L300,585L298,585L297,585L295,584L294,582L292,581L291,581L289,579L287,578L287,577L285,575L284,573L279,572L276,571L274,572L273,573L272,574L270,574L269,575L269,577L268,578L267,580L266,581L265,579L264,580L262,581L258,581L256,580L255,580L256,578L256,576L257,575L258,574L259,572L259,571L261,569L262,567L262,566L260,564L256,562L256,560L258,556L260,553L260,552L259,550L259,542L262,540L270,540L275,540L275,540Z" fill="#60a5fa" data-province="ฉะเชิงเทรา" data-region="ภาคตะวันออก"/>
<path class="prov" d="M338,606L339,604L342,604L344,603L345,600L346,599L348,599L348,601L350,602L351,603L353,602L354,600L355,599L356,597L360,607L362,610L365,614L366,617L368,619L367,620L367,622L366,624L366,625L367,628L367,631L368,633L369,634L369,636L368,639L367,640L365,640L364,642L362,644L362,645L361,649L362,651L363,653L360,652L359,652L357,654L357,658L358,659L358,661L357,663L358,665L359,666L360,668L359,671L357,669L357,671L357,673L356,674L354,672L354,668L354,667L355,665L353,668L352,666L353,664L351,665L350,664L348,664L349,666L350,666L351,668L351,669L352,671L353,673L352,675L350,673L346,668L344,667L343,666L342,664L340,662L339,660L340,658L341,659L342,657L340,657L341,656L338,656L339,653L336,654L336,655L337,657L338,658L338,662L336,657L335,656L332,656L332,653L331,651L330,652L331,656L328,655L327,653L328,651L326,651L325,649L324,647L323,645L321,644L320,643L320,641L321,639L322,638L322,633L323,632L322,629L322,627L320,624L319,623L318,623L316,622L316,620L317,619L316,617L315,616L313,612L313,610L313,608L315,605L317,604L318,604L321,602L323,600L324,599L325,600L327,600L328,597L330,595L334,591L335,595L336,597L336,601L337,604L337,606L338,606Z" fill="#60a5fa" data-province="จันทบุรี" data-region="ภาคตะวันออก"/>
<path class="prov" d="M345,526L346,525L346,524L347,522L349,524L350,525L351,526L353,526L354,527L356,526L357,525L359,525L361,526L363,525L364,525L366,526L368,526L369,527L369,529L370,530L371,530L371,529L372,527L374,527L375,525L376,526L377,525L378,526L382,527L383,527L387,526L388,525L391,524L392,525L394,525L396,524L397,525L397,527L395,530L394,534L394,536L393,537L389,541L387,543L386,545L385,550L384,551L383,553L383,554L383,556L381,558L374,562L372,564L371,566L373,568L375,569L371,572L365,573L360,572L357,573L356,575L357,577L357,579L357,586L357,591L357,596L356,598L354,599L353,601L352,603L351,602L349,601L348,599L346,599L345,600L344,602L342,604L340,604L339,605L337,605L336,601L337,598L335,596L334,591L333,587L332,585L331,582L330,581L331,579L333,579L334,578L334,576L334,572L333,571L331,571L329,571L329,570L329,568L328,566L327,565L326,560L327,558L328,556L328,553L325,551L324,550L325,547L325,545L325,543L327,541L328,539L328,537L328,535L329,534L331,533L333,533L334,530L335,529L337,528L338,522L339,524L344,526L345,526Z" fill="#f87171" data-province="สระแก้ว" data-region="ภาคกลาง"/>
<path class="prov" d="M313,608L313,609L313,612L315,616L316,616L317,618L316,620L316,622L317,623L319,622L320,624L321,626L322,627L323,632L322,633L322,636L321,638L321,640L320,643L318,642L314,642L312,644L311,646L308,647L305,647L305,648L303,648L301,648L298,648L296,649L295,651L293,650L288,648L283,646L272,644L268,646L265,647L264,645L265,640L266,639L266,636L266,635L269,632L270,630L270,629L271,627L272,626L272,624L272,622L271,620L270,619L271,617L273,616L275,617L277,617L278,616L277,614L277,613L280,613L282,614L284,615L286,614L287,613L289,613L290,615L292,617L295,616L297,616L299,615L300,613L302,613L303,613L305,612L305,610L306,608L308,607L309,606L311,607L313,608L313,608Z" fill="#60a5fa" data-province="ระยอง" data-region="ภาคตะวันออก"/>
<path class="prov" d="M373,722L375,723L376,725L376,728L375,731L375,732L375,735L374,733L371,732L372,730L371,728L371,726L372,720L373,721L373,722ZM353,687L354,688L358,690L359,692L360,694L362,696L363,698L364,700L365,701L364,703L360,699L360,701L358,702L356,701L356,703L355,702L354,700L354,695L352,689L351,687L353,687ZM375,650L380,656L382,657L382,660L384,662L386,663L387,665L386,667L384,669L384,670L383,672L382,685L382,688L386,695L387,696L388,699L389,703L392,710L395,715L397,719L398,722L398,726L397,728L396,727L397,722L397,721L396,718L391,711L388,708L388,702L387,699L386,696L378,687L379,687L378,685L376,683L374,683L373,685L374,692L374,694L374,696L372,695L372,693L371,690L369,689L367,688L359,685L357,684L357,685L355,684L354,683L354,680L352,678L354,677L356,676L357,675L358,673L359,671L360,668L359,666L358,665L357,664L357,662L358,660L358,659L357,656L358,653L359,652L361,653L362,652L362,650L361,646L362,644L364,642L364,641L366,640L368,639L367,641L367,643L367,645L368,647L373,648L375,650L375,650Z" fill="#60a5fa" data-province="ตราด" data-region="ภาคตะวันออก"/>
<path class="prov" d="M411,417L410,420L410,422L411,423L413,422L414,426L416,426L418,429L419,429L420,430L422,430L424,431L425,429L427,428L429,429L431,428L431,430L433,429L435,429L436,431L437,432L436,434L436,436L435,437L434,441L434,443L434,446L434,448L434,449L434,451L435,453L435,454L434,455L433,457L433,460L433,462L432,463L431,466L430,468L428,469L426,470L425,472L424,473L423,474L423,476L423,478L422,482L420,485L420,487L419,489L419,490L419,492L419,494L419,497L420,499L421,501L420,503L420,505L420,507L420,510L417,511L412,512L409,513L404,518L402,520L400,521L397,522L397,524L395,525L392,525L391,524L389,525L387,526L384,527L382,527L380,527L378,526L377,526L375,525L374,522L375,519L376,517L377,515L376,514L375,510L374,508L374,505L374,502L373,501L370,498L369,496L368,492L369,486L369,485L368,483L367,479L367,477L366,475L365,470L367,470L368,471L371,472L373,472L374,470L372,467L372,465L372,463L372,461L371,460L374,460L375,461L377,461L380,461L383,460L386,458L387,455L388,453L388,452L389,450L391,446L393,444L394,443L396,442L398,442L401,442L402,440L401,439L401,436L401,433L401,432L401,430L402,428L402,427L401,426L400,425L401,422L403,422L404,421L404,419L402,418L401,418L400,417L399,415L397,415L395,415L394,415L392,415L391,414L390,413L389,411L389,409L389,407L388,405L390,406L392,406L393,405L395,403L395,401L395,396L396,394L399,392L401,394L402,395L403,397L404,399L403,400L402,401L402,403L405,406L406,407L406,409L408,411L409,412L409,413L408,415L411,417L411,417Z" fill="#fbbf24" data-province="บุรีรัมย์" data-region="ภาคอีสาน"/>
<path class="prov" d="M309,320L311,320L313,320L315,322L316,322L318,322L319,323L322,322L324,322L328,324L330,324L332,324L332,326L333,328L334,329L335,330L338,333L339,334L345,335L347,335L349,335L351,336L352,337L354,338L355,339L357,339L358,339L360,340L361,339L362,338L363,340L364,341L365,342L365,344L364,349L363,352L362,356L361,358L360,359L358,362L357,364L354,368L353,369L353,371L355,372L357,373L359,375L361,376L360,378L360,381L359,383L358,384L357,386L357,389L357,390L355,391L353,393L352,395L350,396L346,396L345,398L344,399L344,401L343,403L341,405L340,406L337,403L335,408L332,410L331,413L331,415L332,416L331,418L329,420L328,421L327,423L327,424L326,426L324,425L321,426L315,429L313,430L310,431L307,434L304,436L295,439L293,439L292,437L292,436L290,434L286,432L288,429L291,423L291,421L291,419L291,416L291,413L291,411L291,408L291,405L293,401L293,400L292,398L290,398L289,396L288,388L289,386L290,385L291,384L291,381L292,379L291,378L289,377L288,375L288,370L289,361L289,359L290,358L291,356L290,355L290,353L292,346L293,345L293,344L294,342L295,340L296,338L297,337L297,334L299,333L300,331L300,329L300,327L300,325L301,324L301,322L301,321L302,320L304,321L305,320L306,318L308,319L309,320L309,320Z" fill="#fbbf24" data-province="ชัยภูมิ" data-region="ภาคอีสาน"/>
<path class="prov" d="M392,305L394,304L396,304L398,306L399,307L411,301L412,303L412,305L411,307L413,308L414,306L415,306L416,308L416,310L416,312L415,313L415,317L414,318L415,320L414,321L414,323L414,325L413,327L412,328L411,330L410,332L409,334L408,335L406,335L405,337L404,338L399,339L400,341L400,343L399,344L398,346L397,348L396,349L395,351L393,352L393,354L393,356L393,358L393,360L394,363L394,366L393,368L394,371L395,372L396,374L397,375L397,378L397,379L397,381L399,386L399,389L399,392L397,393L396,395L395,400L395,403L394,405L392,406L390,406L388,405L387,403L384,402L383,401L382,400L382,398L380,399L377,398L376,399L370,398L368,399L366,399L365,400L362,399L360,397L360,395L359,394L358,393L357,391L357,389L357,388L358,385L359,383L360,381L360,379L360,377L360,376L358,374L355,372L353,371L353,370L354,368L357,365L358,362L360,359L361,358L362,356L363,352L364,349L365,344L365,342L364,341L363,340L362,338L361,339L360,340L358,339L357,339L355,339L354,338L352,337L351,336L350,335L348,334L347,335L340,335L338,334L336,330L334,329L333,328L332,326L332,324L330,324L328,324L324,322L322,322L320,323L318,322L318,320L319,319L320,317L320,313L325,311L330,308L331,307L333,307L335,306L337,305L339,304L342,304L344,304L345,305L346,305L348,306L349,305L351,304L352,303L354,304L355,305L356,306L357,308L358,309L360,310L362,311L365,311L367,311L369,311L371,311L372,313L374,313L376,313L377,308L381,299L381,297L382,294L382,292L383,290L384,288L384,290L388,293L390,294L391,296L391,297L391,299L391,301L391,303L392,304L392,305Z" fill="#fbbf24" data-province="ขอนแก่น" data-region="ภาคอีสาน"/>
<path class="prov" d="M448,291L447,292L449,293L451,293L453,294L454,295L456,297L457,300L457,301L458,303L460,304L461,306L463,309L465,310L466,311L468,312L469,310L470,309L471,308L473,307L474,307L477,308L478,309L479,311L480,313L481,315L483,318L483,320L484,321L484,323L484,325L486,328L486,329L488,333L488,336L488,339L488,340L487,340L485,340L484,339L481,340L476,343L474,340L473,339L471,339L470,340L467,340L466,339L464,338L463,337L460,337L458,338L452,344L451,345L452,347L453,348L454,350L455,351L454,354L453,355L453,357L451,357L450,357L449,359L447,360L446,358L445,357L443,359L441,357L440,358L437,358L435,360L434,358L432,356L432,354L430,352L428,350L428,348L427,347L426,346L424,345L424,344L422,344L418,346L416,346L415,344L416,342L416,341L416,339L415,338L415,336L416,331L416,330L416,328L415,327L416,325L416,324L415,323L414,322L415,320L414,318L415,317L415,314L415,313L416,310L416,308L416,306L414,305L414,307L412,308L411,306L412,304L411,301L412,298L414,298L416,298L418,298L420,298L422,298L424,299L426,300L428,301L430,302L431,303L432,304L432,306L432,308L434,306L435,305L435,303L436,302L436,300L436,298L437,296L438,295L438,292L438,291L439,289L442,287L444,286L445,287L446,289L447,290L448,291Z" fill="#fbbf24" data-province="กาฬสินธุ์" data-region="ภาคอีสาน"/>
<path class="prov" d="M417,346L422,345L423,343L424,344L425,346L427,346L427,348L428,350L430,352L431,352L432,355L434,358L434,360L435,359L439,358L436,365L435,367L435,369L436,371L436,377L437,380L437,381L436,383L435,386L433,398L432,399L430,399L428,399L427,400L425,405L423,407L424,409L425,410L426,412L428,413L429,414L431,413L432,413L433,415L433,417L432,422L428,424L425,423L423,422L421,421L420,420L411,417L409,416L408,414L409,412L408,411L406,409L406,408L405,407L402,403L402,401L403,400L404,399L403,397L402,396L401,394L399,392L399,390L399,387L397,382L397,379L397,378L397,376L396,374L395,372L394,371L393,369L394,367L394,363L393,360L393,358L393,356L393,354L393,353L395,351L396,350L397,348L397,346L398,345L400,343L400,341L399,339L404,338L405,337L406,335L407,335L409,334L410,332L411,331L412,328L413,327L414,325L414,323L416,324L416,325L415,327L416,328L416,330L416,331L415,335L415,337L416,339L416,341L416,342L415,344L416,345L417,346L417,346Z" fill="#fbbf24" data-province="มหาสารคาม" data-region="ภาคอีสาน"/>
<path class="prov" d="M357,391L358,393L359,394L360,395L360,397L361,398L363,400L366,399L368,399L370,398L374,399L376,398L379,399L381,399L382,398L383,400L384,402L385,402L388,405L389,407L389,409L389,411L390,413L391,414L392,415L394,415L395,415L397,415L398,415L399,417L401,418L402,418L404,419L404,420L403,421L401,422L400,425L401,426L402,427L402,428L401,430L401,432L401,433L401,435L401,439L402,440L401,442L399,442L397,442L395,443L393,444L391,446L389,449L388,451L388,452L387,454L386,457L383,460L381,461L378,461L376,461L374,460L371,459L372,461L372,463L372,464L372,467L374,470L373,471L371,472L369,472L368,470L366,469L365,468L366,475L367,476L367,479L368,482L369,483L369,485L368,491L369,496L370,498L373,501L374,502L374,504L374,507L375,509L375,513L376,514L376,516L375,519L374,522L375,525L374,527L372,527L371,529L372,530L370,530L369,530L369,528L369,526L366,526L364,525L363,525L361,526L359,525L358,525L356,526L355,527L354,527L351,526L350,525L349,524L348,522L346,523L346,525L345,526L340,525L338,522L337,521L335,520L333,518L332,517L331,515L331,513L333,510L333,508L332,507L330,508L329,508L328,506L326,506L325,508L323,508L321,508L320,509L318,509L318,511L316,511L315,509L311,506L310,504L309,503L307,502L303,503L302,503L300,502L299,500L298,501L296,502L294,503L288,499L287,498L285,497L284,498L282,499L281,497L280,495L279,494L279,492L280,490L279,476L281,477L282,478L284,478L285,477L287,476L288,475L289,473L292,471L293,470L295,468L297,467L297,464L293,456L293,454L292,452L291,451L289,451L287,450L286,449L285,447L285,440L285,437L286,434L286,432L290,434L291,435L292,437L293,438L295,439L304,436L306,435L309,432L313,430L315,429L320,426L323,425L324,425L326,426L327,423L327,421L329,420L331,418L332,416L331,415L331,413L331,411L333,409L336,404L340,405L341,405L342,404L343,402L344,400L345,398L345,397L348,396L349,395L351,395L353,393L355,391L357,391L357,391Z" fill="#fbbf24" data-province="นครราชสีมา" data-region="ภาคอีสาน"/>
<path class="prov" d="M496,349L494,354L492,355L491,356L489,358L489,360L488,362L486,362L484,364L483,365L482,366L480,367L479,368L479,370L480,372L479,375L479,376L478,377L476,377L474,377L473,377L473,381L473,382L473,384L474,385L473,387L473,389L472,391L474,391L475,391L477,390L477,388L479,390L481,393L481,396L480,399L482,400L485,405L486,407L484,408L482,409L481,411L479,412L478,413L477,414L476,416L474,418L471,422L469,422L467,422L466,421L465,420L464,418L461,419L460,420L458,420L447,420L445,419L442,419L440,421L439,421L435,420L433,421L432,422L433,417L433,415L432,413L431,413L429,414L428,413L426,412L425,411L425,409L423,408L424,406L426,401L427,400L429,399L431,399L433,399L435,386L436,384L437,382L437,380L436,377L436,372L435,370L435,367L436,365L439,358L441,358L442,359L445,359L446,359L448,359L448,357L450,358L452,357L453,355L454,354L455,351L454,350L453,349L453,347L452,345L452,344L458,338L460,337L462,337L464,338L466,339L467,340L469,340L470,340L472,339L474,340L475,343L481,340L483,339L484,340L486,340L488,340L490,339L491,339L492,337L493,339L494,342L494,347L494,348L496,349L496,349Z" fill="#fbbf24" data-province="ร้อยเอ็ด" data-region="ภาคอีสาน"/>
<path class="prov" d="M427,424L432,422L433,421L435,420L437,421L439,421L442,419L444,419L447,420L457,421L459,420L461,419L463,419L464,419L465,420L468,421L468,422L470,422L471,423L474,423L476,424L476,426L477,428L476,429L475,430L474,431L473,432L472,434L471,435L471,436L471,438L470,440L470,442L470,443L471,445L471,446L472,449L472,451L473,452L473,454L472,456L471,457L470,458L470,460L468,462L468,463L467,465L467,467L466,468L467,470L469,471L471,472L472,473L472,478L473,479L476,484L476,487L475,492L475,493L475,496L475,498L476,501L475,508L472,509L470,508L466,508L465,509L464,510L462,509L461,508L459,508L456,508L452,507L450,506L449,503L448,502L446,502L445,504L444,505L442,504L440,503L437,505L434,507L433,507L431,507L429,508L426,509L422,509L420,510L419,508L420,506L420,504L420,502L420,499L419,497L419,494L419,492L419,490L419,489L420,488L420,486L421,484L423,479L423,476L423,474L424,473L425,472L426,470L428,469L430,468L431,466L432,464L433,462L433,460L433,458L433,457L434,455L435,454L435,452L434,450L434,449L434,446L434,444L433,441L434,438L435,437L436,435L437,433L437,431L436,431L434,429L432,430L431,430L429,429L427,428L426,429L424,431L422,430L421,431L419,429L418,429L416,426L414,427L413,423L412,422L410,422L410,420L411,417L419,420L421,421L423,422L425,423L427,424Z" fill="#fbbf24" data-province="สุรินทร์" data-region="ภาคอีสาน"/>
<path class="prov" d="M342,196L342,199L341,200L339,202L338,206L338,209L337,212L337,214L336,215L336,217L337,220L337,222L338,224L338,226L337,229L337,231L336,234L337,240L338,241L339,239L340,243L341,244L342,245L343,247L344,252L343,254L342,256L341,257L339,258L337,258L335,258L333,258L333,260L334,262L335,264L336,265L336,267L336,269L334,271L333,273L333,274L331,277L331,280L333,282L335,283L336,284L338,285L339,285L341,286L342,288L342,290L343,291L344,292L342,294L341,296L337,297L337,299L338,301L339,303L338,305L336,305L334,307L332,307L330,308L325,311L320,313L317,314L315,314L315,312L315,310L315,308L315,303L315,301L314,299L313,298L310,293L310,291L308,291L308,292L307,294L306,295L304,295L302,291L300,290L298,288L295,289L294,288L292,289L290,288L289,288L287,289L284,287L282,286L280,285L279,286L279,288L278,290L276,291L275,291L274,293L275,294L274,296L274,298L274,299L273,301L270,302L270,300L268,299L268,297L268,296L267,294L268,292L268,289L270,285L270,281L271,279L272,277L271,274L270,273L269,272L267,271L266,270L265,268L263,268L261,267L260,267L259,266L259,264L259,262L259,259L258,257L259,255L259,253L260,251L261,249L264,250L266,251L267,252L268,253L269,254L272,256L274,257L276,256L277,254L278,252L279,252L281,248L283,246L290,239L292,239L293,237L292,236L293,235L295,235L296,234L298,236L298,234L300,232L302,231L304,230L302,229L304,228L305,226L305,224L307,225L308,223L316,220L316,219L318,213L318,210L319,208L320,207L324,209L326,211L338,198L339,196L342,196L342,196Z" fill="#fbbf24" data-province="เลย" data-region="ภาคอีสาน"/>
<path class="prov" d="M433,214L431,214L429,215L430,217L431,218L430,220L431,222L430,224L427,225L425,227L423,226L422,224L420,224L418,224L416,226L416,228L415,229L413,228L411,227L410,225L409,224L408,223L405,224L404,225L404,226L402,228L401,226L400,225L399,223L396,222L395,223L395,225L394,226L393,227L393,229L393,230L394,232L394,233L393,235L393,237L392,238L389,240L388,241L388,243L386,245L384,245L381,246L379,245L377,244L376,243L376,241L376,239L375,237L372,234L367,233L366,232L365,231L365,229L364,228L363,226L362,224L361,222L360,221L358,220L357,218L355,216L354,215L352,214L351,213L349,213L348,212L346,213L345,214L344,212L343,210L342,209L341,208L340,208L338,206L339,202L340,201L341,199L342,196L345,196L347,198L347,201L349,203L352,206L355,209L357,210L359,210L361,212L363,214L365,215L367,216L373,216L375,217L376,220L375,225L380,228L381,229L381,227L380,225L381,223L384,223L387,219L391,217L393,215L399,212L401,213L403,214L406,214L407,212L408,210L407,206L408,203L409,202L410,202L412,200L413,198L413,195L414,193L418,192L419,191L422,191L423,190L423,193L424,194L426,194L428,195L428,198L428,200L426,201L425,204L425,207L428,210L431,212L433,214L433,214Z" fill="#fbbf24" data-province="หนองคาย" data-region="ภาคอีสาน"/>
<path class="prov" d="M439,208L441,209L442,210L444,210L445,212L446,212L445,214L446,215L447,216L448,217L450,217L451,218L453,220L454,219L455,218L455,219L456,221L456,222L455,224L456,225L458,226L458,224L460,224L461,223L462,225L464,224L465,225L466,225L466,227L466,229L467,230L469,231L470,231L471,230L473,231L473,233L475,233L476,235L476,236L476,238L476,242L474,242L474,245L475,246L474,248L474,251L474,252L473,254L472,255L475,261L475,263L477,263L478,264L478,262L480,263L481,263L482,261L484,261L486,261L488,261L490,261L492,260L494,260L496,260L500,260L500,264L500,265L501,267L501,268L501,270L501,272L502,274L502,275L501,276L499,280L499,282L499,284L498,286L497,287L496,289L497,290L499,291L498,293L495,296L493,297L493,299L492,300L488,303L485,303L483,303L481,303L480,304L479,307L477,308L475,307L474,306L472,307L471,308L470,309L468,311L467,311L465,310L463,309L461,307L460,305L458,303L457,302L457,300L457,298L455,296L453,294L451,293L449,292L448,293L447,291L448,287L447,286L445,283L444,281L442,281L439,279L436,277L435,276L434,277L432,277L430,277L426,274L424,273L422,273L420,270L420,269L421,268L421,266L422,264L423,263L422,261L421,259L422,257L422,255L423,254L424,252L425,250L425,248L426,247L428,247L429,246L430,244L430,242L430,241L430,239L431,237L430,234L429,233L428,232L429,230L429,228L429,227L431,227L430,225L431,223L430,221L430,219L430,218L429,216L430,214L432,215L434,214L436,212L436,210L437,209L439,208L439,208Z" fill="#fbbf24" data-province="สกลนคร" data-region="ภาคอีสาน"/>
<path class="prov" d="M341,208L342,208L343,210L344,211L344,212L345,214L347,212L348,212L350,213L352,214L354,215L355,216L357,217L358,219L359,220L361,222L362,224L362,225L363,227L364,228L364,230L365,232L366,233L371,233L374,236L376,238L376,240L376,242L376,243L379,245L379,246L383,245L385,246L387,244L388,242L389,240L392,238L393,237L393,236L393,234L394,232L393,230L393,229L393,227L394,226L395,225L395,223L396,222L398,223L400,224L400,225L401,227L403,227L404,225L405,224L406,223L408,223L410,225L411,226L412,227L413,228L415,229L416,227L417,225L420,224L421,223L423,225L424,227L426,225L430,224L430,226L429,227L429,228L429,230L428,232L429,233L430,234L431,236L430,238L430,241L430,242L430,244L430,246L429,247L427,247L426,248L425,250L424,252L423,254L422,255L422,257L422,259L422,261L423,262L422,264L422,265L421,267L420,269L420,270L421,272L424,273L426,274L430,277L432,277L434,277L435,276L436,277L438,278L441,281L443,281L444,282L446,285L448,286L448,290L447,289L445,287L444,286L442,287L440,288L439,290L438,291L438,294L437,296L436,298L436,300L436,302L435,303L435,305L434,306L433,308L432,306L432,304L431,303L430,302L428,301L426,300L424,300L423,299L421,298L419,297L417,298L415,298L413,298L411,301L400,307L398,307L397,305L395,304L394,304L392,304L391,303L391,302L391,300L391,298L392,297L390,295L389,294L385,291L384,289L382,291L382,294L381,296L381,299L372,290L371,286L369,283L370,281L372,281L374,279L375,278L376,276L373,276L372,277L370,278L369,276L367,275L367,274L367,272L368,270L365,269L364,268L364,266L364,264L364,261L364,260L361,254L361,251L360,249L360,245L358,245L357,245L354,243L350,242L348,244L346,245L344,245L343,247L342,245L341,244L340,243L339,239L338,240L337,240L336,235L337,232L337,230L338,227L338,224L337,222L337,220L336,217L336,216L337,214L337,213L338,210L338,206L340,208L341,208Z" fill="#fbbf24" data-province="อุดรธานี" data-region="ภาคอีสาน"/>
<path class="prov" d="M358,245L360,244L360,248L361,251L361,254L364,260L364,261L364,263L364,265L364,266L365,269L367,269L368,271L367,274L367,275L369,276L369,278L372,277L373,276L375,276L375,278L374,279L373,281L371,281L369,282L371,286L372,289L381,299L377,308L376,312L375,313L373,314L372,312L370,311L367,311L365,311L363,311L361,310L359,310L358,309L357,308L356,306L355,305L354,303L352,303L350,304L349,305L348,306L345,305L344,304L342,304L339,304L338,302L337,299L337,297L340,296L342,294L344,293L343,291L343,290L342,288L341,286L339,285L338,285L336,284L335,283L333,282L331,281L331,278L332,275L333,273L334,271L335,270L336,268L336,266L336,265L334,263L333,261L333,259L334,258L336,258L338,258L341,257L342,256L343,254L344,252L343,247L344,245L346,245L348,245L349,243L352,243L356,244L358,245L358,245Z" fill="#fbbf24" data-province="หนองบัวลำภู" data-region="ภาคอีสาน"/>
<path class="prov" d="M491,224L496,228L497,229L498,233L499,234L500,237L503,240L505,242L515,249L520,252L522,255L523,257L524,258L526,259L528,264L528,266L528,270L528,275L528,279L527,280L523,292L522,294L523,299L523,302L524,304L524,306L524,309L522,310L522,311L523,313L522,315L519,313L519,311L518,309L516,308L513,308L511,308L509,309L507,309L506,307L504,307L503,306L501,306L499,306L498,305L495,305L493,306L491,306L490,305L488,303L491,301L492,300L493,297L495,296L498,293L499,291L497,290L496,289L497,287L498,286L499,284L499,282L499,280L500,277L501,276L502,275L502,273L501,270L501,269L501,267L500,265L500,264L500,262L496,260L494,260L492,260L490,261L488,261L486,261L484,261L483,261L481,263L480,263L478,262L478,263L477,263L475,263L475,261L472,256L473,254L474,252L474,251L474,248L475,247L474,245L474,243L475,242L477,240L477,238L476,235L475,234L474,233L473,232L472,229L473,227L472,226L471,224L471,222L472,220L474,219L475,220L476,221L476,223L478,224L480,223L481,221L481,219L481,217L480,216L480,214L483,213L485,212L489,220L490,223L491,224L491,224Z" fill="#fbbf24" data-province="นครพนม" data-region="ภาคอีสาน"/>
<path class="prov" d="M492,306L494,305L497,305L499,306L501,306L503,306L504,307L506,306L507,309L509,309L510,308L513,308L516,308L517,308L519,309L518,312L521,314L523,314L522,312L522,310L523,309L524,311L525,317L525,319L524,322L523,325L523,329L523,331L523,332L524,334L525,335L529,337L530,339L531,340L532,341L533,343L533,345L534,347L536,349L538,351L538,353L534,356L533,358L532,359L529,360L527,360L521,358L519,357L518,356L517,357L516,358L514,357L513,356L512,354L511,352L510,350L508,350L507,349L506,348L504,348L502,348L501,347L499,347L497,348L496,349L494,349L494,347L494,343L493,339L492,337L491,338L490,339L488,340L488,339L488,336L488,334L487,330L486,328L484,326L484,323L484,321L483,320L483,318L481,316L481,314L479,311L478,309L477,308L479,307L480,306L480,304L483,303L484,303L488,303L490,305L491,306L492,306Z" fill="#fbbf24" data-province="มุกดาหาร" data-region="ภาคอีสาน"/>
<path class="prov" d="M315,1140L319,1145L321,1148L328,1153L336,1162L339,1165L339,1169L339,1176L338,1178L337,1180L331,1185L330,1187L329,1191L329,1194L328,1197L326,1200L325,1201L324,1202L322,1204L321,1206L319,1207L318,1206L317,1204L315,1203L313,1205L311,1205L310,1204L309,1200L309,1198L308,1197L306,1195L305,1194L304,1193L302,1194L300,1195L300,1191L299,1189L299,1187L299,1182L298,1181L297,1180L296,1177L295,1175L293,1173L292,1171L292,1169L293,1168L293,1167L294,1165L296,1153L299,1151L302,1150L303,1149L305,1147L306,1145L307,1144L308,1142L307,1139L306,1138L305,1137L307,1136L308,1135L310,1135L311,1136L311,1138L313,1139L315,1140L315,1140Z" fill="#2dd4bf" data-province="นราธิวาส" data-region="ภาคใต้"/>
<path class="prov" d="M315,1139L313,1139L312,1138L311,1136L310,1135L308,1135L307,1136L305,1137L306,1138L307,1139L307,1141L305,1142L303,1141L302,1140L301,1138L299,1139L297,1140L295,1140L292,1140L290,1141L288,1141L287,1139L286,1138L287,1136L286,1133L286,1132L284,1134L282,1137L281,1138L279,1138L277,1137L276,1137L274,1135L273,1134L271,1134L269,1128L268,1127L268,1121L269,1120L270,1117L279,1116L281,1115L282,1113L285,1113L287,1115L290,1115L289,1113L288,1112L284,1109L286,1109L288,1109L289,1111L292,1113L294,1113L297,1114L299,1115L301,1116L304,1118L311,1133L315,1139L315,1139Z" fill="#2dd4bf" data-province="ปัตตานี" data-region="ภาคใต้"/>
<path class="prov" d="M435,179L437,179L439,179L441,180L445,181L446,182L451,185L456,185L458,186L460,187L461,189L463,190L464,189L465,188L467,187L468,186L470,186L472,187L473,189L476,196L479,204L480,205L481,207L485,211L484,213L481,213L480,215L480,216L481,218L481,220L480,223L479,224L477,223L476,222L475,221L475,219L472,219L471,222L471,223L472,226L473,227L472,229L471,230L470,232L468,231L467,229L466,228L466,227L465,226L465,224L463,224L462,223L460,224L459,224L458,225L456,225L455,224L456,222L456,221L455,219L455,218L454,219L453,220L452,219L450,218L449,217L448,216L446,215L445,214L447,213L445,212L444,210L442,210L441,209L439,208L437,209L436,210L436,211L435,213L433,214L431,212L428,210L425,207L425,204L426,201L428,200L428,198L428,195L426,194L424,194L423,193L424,191L423,189L420,186L419,185L420,182L421,181L422,180L424,179L429,177L434,179L435,179Z" fill="#fbbf24" data-province="บึงกาฬ" data-region="ภาคอีสาน"/>
</svg>